<?xml version="1.0" standalone="no"?>
 <!DOCTYPE svg PUBLIC "-//W3C//DTD SVG 1.1//EN" 
 "http://www.w3.org/Graphics/SVG/1.1/DTD/svg11.dtd"> 
<svg
  xmlns:svg="http://www.w3.org/2000/svg"
  xmlns="http://www.w3.org/2000/svg"
  xmlns:xlink="http://www.w3.org/1999/xlink"
  version="1.1"
  width="199.9996mm" height="80.0100mm" viewBox="0.0000 0.0000 199.9996 80.0100">
<title>SVG Image created as moisture_sensor_circuit_design.svg date 2023/11/02 23:18:22 </title>
  <desc>Image generated by Eeschema-SVG </desc>
<g style="fill:#000000; fill-opacity:1.0000;stroke:#000000; stroke-opacity:1.0000;
stroke-linecap:round; stroke-linejoin:round;"
 transform="translate(0 0) scale(1 1)">
</g>
<g style="fill:#F5F4EF; fill-opacity:0.0; 
stroke:#F5F4EF; stroke-width:0.0000; stroke-opacity:1; 
stroke-linecap:round; stroke-linejoin:round;">
</g>
<g style="fill:#F5F4EF; fill-opacity:1.0000; 
stroke:#F5F4EF; stroke-width:0.0001; stroke-opacity:1; 
stroke-linecap:round; stroke-linejoin:round;">
<rect x="0.000000" y="0.000000" width="199.999600" height="80.010000" rx="0.000000" />
</g>
<g style="fill:#840000; fill-opacity:1.0000; 
stroke:#840000; stroke-width:0.0001; stroke-opacity:1; 
stroke-linecap:round; stroke-linejoin:round;">
</g>
<g style="fill:#840000; fill-opacity:1.0000; 
stroke:#840000; stroke-width:0.1524; stroke-opacity:1; 
stroke-linecap:round; stroke-linejoin:round;">
</g>
<g style="fill:#840000; fill-opacity:0.0; 
stroke:#840000; stroke-width:0.1524; stroke-opacity:1; 
stroke-linecap:round; stroke-linejoin:round;">
<path d="M79.9996 36.0100
L187.9996 36.0100
L187.9996 68.0100
L79.9996 68.0100
L79.9996 36.0100
" />
<path d="M10.0000 10.0000
L189.9996 10.0000
L189.9996 70.0100
L10.0000 70.0100
L10.0000 10.0000
" />
<path d="M12.0000 12.0000
L187.9996 12.0000
L187.9996 68.0100
L12.0000 68.0100
L12.0000 12.0000
" />
<path d="M60.0000 12.0000
L60.0000 10.0000
" />
<path d="M110.0000 12.0000
L110.0000 10.0000
" />
<path d="M160.0000 12.0000
L160.0000 10.0000
" />
<text x="35.0000" y="11.6500"
textLength="1.4353" font-size="1.7333" lengthAdjust="spacingAndGlyphs"
text-anchor="start" opacity="0">1</text>
<g class="stroked-text"><desc>1</desc>
<path d="M36.0906 11.5935
L35.3478 11.5935
" />
<path d="M35.7192 11.5935
L35.7192 10.2935
" />
<path d="M35.7192 10.2935
L35.5954 10.4792
" />
<path d="M35.5954 10.4792
L35.4716 10.6030
" />
<path d="M35.4716 10.6030
L35.3478 10.6649
" />
</g><text x="85.0000" y="11.6500"
textLength="1.4353" font-size="1.7333" lengthAdjust="spacingAndGlyphs"
text-anchor="start" opacity="0">2</text>
<g class="stroked-text"><desc>2</desc>
<path d="M85.3478 10.4173
L85.4097 10.3554
" />
<path d="M85.4097 10.3554
L85.5335 10.2935
" />
<path d="M85.5335 10.2935
L85.8430 10.2935
" />
<path d="M85.8430 10.2935
L85.9668 10.3554
" />
<path d="M85.9668 10.3554
L86.0287 10.4173
" />
<path d="M86.0287 10.4173
L86.0906 10.5411
" />
<path d="M86.0906 10.5411
L86.0906 10.6649
" />
<path d="M86.0906 10.6649
L86.0287 10.8506
" />
<path d="M86.0287 10.8506
L85.2859 11.5935
" />
<path d="M85.2859 11.5935
L86.0906 11.5935
" />
</g><text x="135.0000" y="11.6500"
textLength="1.4353" font-size="1.7333" lengthAdjust="spacingAndGlyphs"
text-anchor="start" opacity="0">3</text>
<g class="stroked-text"><desc>3</desc>
<path d="M135.2859 10.2935
L136.0906 10.2935
" />
<path d="M136.0906 10.2935
L135.6573 10.7887
" />
<path d="M135.6573 10.7887
L135.8430 10.7887
" />
<path d="M135.8430 10.7887
L135.9668 10.8506
" />
<path d="M135.9668 10.8506
L136.0287 10.9125
" />
<path d="M136.0287 10.9125
L136.0906 11.0363
" />
<path d="M136.0906 11.0363
L136.0906 11.3458
" />
<path d="M136.0906 11.3458
L136.0287 11.4696
" />
<path d="M136.0287 11.4696
L135.9668 11.5316
" />
<path d="M135.9668 11.5316
L135.8430 11.5935
" />
<path d="M135.8430 11.5935
L135.4716 11.5935
" />
<path d="M135.4716 11.5935
L135.3478 11.5316
" />
<path d="M135.3478 11.5316
L135.2859 11.4696
" />
</g><text x="185.0000" y="11.6500"
textLength="1.4353" font-size="1.7333" lengthAdjust="spacingAndGlyphs"
text-anchor="start" opacity="0">4</text>
<g class="stroked-text"><desc>4</desc>
<path d="M185.9668 10.7268
L185.9668 11.5935
" />
<path d="M185.6573 10.2316
L185.3478 11.1601
" />
<path d="M185.3478 11.1601
L186.1525 11.1601
" />
</g><path d="M60.0000 68.0100
L60.0000 70.0100
" />
<path d="M110.0000 68.0100
L110.0000 70.0100
" />
<path d="M160.0000 68.0100
L160.0000 70.0100
" />
<text x="35.0000" y="69.6600"
textLength="1.4353" font-size="1.7333" lengthAdjust="spacingAndGlyphs"
text-anchor="start" opacity="0">1</text>
<g class="stroked-text"><desc>1</desc>
<path d="M36.0906 69.6035
L35.3478 69.6035
" />
<path d="M35.7192 69.6035
L35.7192 68.3035
" />
<path d="M35.7192 68.3035
L35.5954 68.4892
" />
<path d="M35.5954 68.4892
L35.4716 68.6130
" />
<path d="M35.4716 68.6130
L35.3478 68.6749
" />
</g><text x="85.0000" y="69.6600"
textLength="1.4353" font-size="1.7333" lengthAdjust="spacingAndGlyphs"
text-anchor="start" opacity="0">2</text>
<g class="stroked-text"><desc>2</desc>
<path d="M85.3478 68.4273
L85.4097 68.3654
" />
<path d="M85.4097 68.3654
L85.5335 68.3035
" />
<path d="M85.5335 68.3035
L85.8430 68.3035
" />
<path d="M85.8430 68.3035
L85.9668 68.3654
" />
<path d="M85.9668 68.3654
L86.0287 68.4273
" />
<path d="M86.0287 68.4273
L86.0906 68.5511
" />
<path d="M86.0906 68.5511
L86.0906 68.6749
" />
<path d="M86.0906 68.6749
L86.0287 68.8606
" />
<path d="M86.0287 68.8606
L85.2859 69.6035
" />
<path d="M85.2859 69.6035
L86.0906 69.6035
" />
</g><text x="135.0000" y="69.6600"
textLength="1.4353" font-size="1.7333" lengthAdjust="spacingAndGlyphs"
text-anchor="start" opacity="0">3</text>
<g class="stroked-text"><desc>3</desc>
<path d="M135.2859 68.3035
L136.0906 68.3035
" />
<path d="M136.0906 68.3035
L135.6573 68.7987
" />
<path d="M135.6573 68.7987
L135.8430 68.7987
" />
<path d="M135.8430 68.7987
L135.9668 68.8606
" />
<path d="M135.9668 68.8606
L136.0287 68.9225
" />
<path d="M136.0287 68.9225
L136.0906 69.0463
" />
<path d="M136.0906 69.0463
L136.0906 69.3558
" />
<path d="M136.0906 69.3558
L136.0287 69.4796
" />
<path d="M136.0287 69.4796
L135.9668 69.5416
" />
<path d="M135.9668 69.5416
L135.8430 69.6035
" />
<path d="M135.8430 69.6035
L135.4716 69.6035
" />
<path d="M135.4716 69.6035
L135.3478 69.5416
" />
<path d="M135.3478 69.5416
L135.2859 69.4796
" />
</g><text x="185.0000" y="69.6600"
textLength="1.4353" font-size="1.7333" lengthAdjust="spacingAndGlyphs"
text-anchor="start" opacity="0">4</text>
<g class="stroked-text"><desc>4</desc>
<path d="M185.9668 68.7368
L185.9668 69.6035
" />
<path d="M185.6573 68.2416
L185.3478 69.1701
" />
<path d="M185.3478 69.1701
L186.1525 69.1701
" />
</g><path d="M10.0000 60.0000
L12.0000 60.0000
" />
<text x="11.0000" y="35.6500"
textLength="1.3115" font-size="1.7333" lengthAdjust="spacingAndGlyphs"
text-anchor="middle" opacity="0">A</text>
<g class="stroked-text"><desc>A</desc>
<path d="M10.6905 35.2220
L11.3095 35.2220
" />
<path d="M10.5667 35.5935
L11.0000 34.2935
" />
<path d="M11.0000 34.2935
L11.4333 35.5935
" />
</g><path d="M189.9996 60.0000
L187.9996 60.0000
" />
<text x="188.9996" y="35.6500"
textLength="1.3115" font-size="1.7333" lengthAdjust="spacingAndGlyphs"
text-anchor="middle" opacity="0">A</text>
<g class="stroked-text"><desc>A</desc>
<path d="M188.6901 35.2220
L189.3091 35.2220
" />
<path d="M188.5663 35.5935
L188.9996 34.2935
" />
<path d="M188.9996 34.2935
L189.4329 35.5935
" />
</g><text x="102.9996" y="63.8600"
textLength="7.0143" font-size="2.0000" lengthAdjust="spacingAndGlyphs"
text-anchor="start" opacity="0">Date: </text>
<g class="stroked-text"><desc>Date: </desc>
<path d="M103.4569 63.7959
L103.4569 62.2959
" />
<path d="M103.4569 62.2959
L103.8140 62.2959
" />
<path d="M103.8140 62.2959
L104.0283 62.3673
" />
<path d="M104.0283 62.3673
L104.1712 62.5102
" />
<path d="M104.1712 62.5102
L104.2426 62.6530
" />
<path d="M104.2426 62.6530
L104.3140 62.9387
" />
<path d="M104.3140 62.9387
L104.3140 63.1530
" />
<path d="M104.3140 63.1530
L104.2426 63.4387
" />
<path d="M104.2426 63.4387
L104.1712 63.5816
" />
<path d="M104.1712 63.5816
L104.0283 63.7245
" />
<path d="M104.0283 63.7245
L103.8140 63.7959
" />
<path d="M103.8140 63.7959
L103.4569 63.7959
" />
<path d="M105.5998 63.7959
L105.5998 63.0102
" />
<path d="M105.5998 63.0102
L105.5283 62.8673
" />
<path d="M105.5283 62.8673
L105.3855 62.7959
" />
<path d="M105.3855 62.7959
L105.0998 62.7959
" />
<path d="M105.0998 62.7959
L104.9569 62.8673
" />
<path d="M105.5998 63.7245
L105.4569 63.7959
" />
<path d="M105.4569 63.7959
L105.0998 63.7959
" />
<path d="M105.0998 63.7959
L104.9569 63.7245
" />
<path d="M104.9569 63.7245
L104.8855 63.5816
" />
<path d="M104.8855 63.5816
L104.8855 63.4387
" />
<path d="M104.8855 63.4387
L104.9569 63.2959
" />
<path d="M104.9569 63.2959
L105.0998 63.2245
" />
<path d="M105.0998 63.2245
L105.4569 63.2245
" />
<path d="M105.4569 63.2245
L105.5998 63.1530
" />
<path d="M106.0997 62.7959
L106.6711 62.7959
" />
<path d="M106.3140 62.2959
L106.3140 63.5816
" />
<path d="M106.3140 63.5816
L106.3854 63.7245
" />
<path d="M106.3854 63.7245
L106.5283 63.7959
" />
<path d="M106.5283 63.7959
L106.6711 63.7959
" />
<path d="M107.7425 63.7245
L107.5997 63.7959
" />
<path d="M107.5997 63.7959
L107.3140 63.7959
" />
<path d="M107.3140 63.7959
L107.1711 63.7245
" />
<path d="M107.1711 63.7245
L107.0997 63.5816
" />
<path d="M107.0997 63.5816
L107.0997 63.0102
" />
<path d="M107.0997 63.0102
L107.1711 62.8673
" />
<path d="M107.1711 62.8673
L107.3140 62.7959
" />
<path d="M107.3140 62.7959
L107.5997 62.7959
" />
<path d="M107.5997 62.7959
L107.7425 62.8673
" />
<path d="M107.7425 62.8673
L107.8140 63.0102
" />
<path d="M107.8140 63.0102
L107.8140 63.1530
" />
<path d="M107.8140 63.1530
L107.0997 63.2959
" />
<path d="M108.4568 63.6530
L108.5282 63.7245
" />
<path d="M108.5282 63.7245
L108.4568 63.7959
" />
<path d="M108.4568 63.7959
L108.3854 63.7245
" />
<path d="M108.3854 63.7245
L108.4568 63.6530
" />
<path d="M108.4568 63.6530
L108.4568 63.7959
" />
<path d="M108.4568 62.8673
L108.5282 62.9387
" />
<path d="M108.5282 62.9387
L108.4568 63.0102
" />
<path d="M108.4568 63.0102
L108.3854 62.9387
" />
<path d="M108.3854 62.9387
L108.4568 62.8673
" />
<path d="M108.4568 62.8673
L108.4568 63.0102
" />
</g><path d="M79.9996 64.5100
L187.9996 64.5100
" />
<text x="80.9996" y="66.6600"
textLength="29.0859" font-size="2.0000" lengthAdjust="spacingAndGlyphs"
text-anchor="start" opacity="0">KiCad E.D.A.  kicad 7.0.7</text>
<g class="stroked-text"><desc>KiCad E.D.A.  kicad 7.0.7</desc>
<path d="M81.4569 66.5959
L81.4569 65.0959
" />
<path d="M82.3140 66.5959
L81.6712 65.7387
" />
<path d="M82.3140 65.0959
L81.4569 65.9530
" />
<path d="M82.9569 66.5959
L82.9569 65.5959
" />
<path d="M82.9569 65.0959
L82.8855 65.1673
" />
<path d="M82.8855 65.1673
L82.9569 65.2387
" />
<path d="M82.9569 65.2387
L83.0283 65.1673
" />
<path d="M83.0283 65.1673
L82.9569 65.0959
" />
<path d="M82.9569 65.0959
L82.9569 65.2387
" />
<path d="M84.5283 66.4530
L84.4569 66.5245
" />
<path d="M84.4569 66.5245
L84.2426 66.5959
" />
<path d="M84.2426 66.5959
L84.0998 66.5959
" />
<path d="M84.0998 66.5959
L83.8855 66.5245
" />
<path d="M83.8855 66.5245
L83.7426 66.3816
" />
<path d="M83.7426 66.3816
L83.6712 66.2387
" />
<path d="M83.6712 66.2387
L83.5998 65.9530
" />
<path d="M83.5998 65.9530
L83.5998 65.7387
" />
<path d="M83.5998 65.7387
L83.6712 65.4530
" />
<path d="M83.6712 65.4530
L83.7426 65.3102
" />
<path d="M83.7426 65.3102
L83.8855 65.1673
" />
<path d="M83.8855 65.1673
L84.0998 65.0959
" />
<path d="M84.0998 65.0959
L84.2426 65.0959
" />
<path d="M84.2426 65.0959
L84.4569 65.1673
" />
<path d="M84.4569 65.1673
L84.5283 65.2387
" />
<path d="M85.8141 66.5959
L85.8141 65.8102
" />
<path d="M85.8141 65.8102
L85.7426 65.6673
" />
<path d="M85.7426 65.6673
L85.5998 65.5959
" />
<path d="M85.5998 65.5959
L85.3141 65.5959
" />
<path d="M85.3141 65.5959
L85.1712 65.6673
" />
<path d="M85.8141 66.5245
L85.6712 66.5959
" />
<path d="M85.6712 66.5959
L85.3141 66.5959
" />
<path d="M85.3141 66.5959
L85.1712 66.5245
" />
<path d="M85.1712 66.5245
L85.0998 66.3816
" />
<path d="M85.0998 66.3816
L85.0998 66.2387
" />
<path d="M85.0998 66.2387
L85.1712 66.0959
" />
<path d="M85.1712 66.0959
L85.3141 66.0245
" />
<path d="M85.3141 66.0245
L85.6712 66.0245
" />
<path d="M85.6712 66.0245
L85.8141 65.9530
" />
<path d="M87.1712 66.5959
L87.1712 65.0959
" />
<path d="M87.1712 66.5245
L87.0283 66.5959
" />
<path d="M87.0283 66.5959
L86.7426 66.5959
" />
<path d="M86.7426 66.5959
L86.5997 66.5245
" />
<path d="M86.5997 66.5245
L86.5283 66.4530
" />
<path d="M86.5283 66.4530
L86.4569 66.3102
" />
<path d="M86.4569 66.3102
L86.4569 65.8816
" />
<path d="M86.4569 65.8816
L86.5283 65.7387
" />
<path d="M86.5283 65.7387
L86.5997 65.6673
" />
<path d="M86.5997 65.6673
L86.7426 65.5959
" />
<path d="M86.7426 65.5959
L87.0283 65.5959
" />
<path d="M87.0283 65.5959
L87.1712 65.6673
" />
<path d="M89.0283 65.8102
L89.5283 65.8102
" />
<path d="M89.7426 66.5959
L89.0283 66.5959
" />
<path d="M89.0283 66.5959
L89.0283 65.0959
" />
<path d="M89.0283 65.0959
L89.7426 65.0959
" />
<path d="M90.3854 66.4530
L90.4568 66.5245
" />
<path d="M90.4568 66.5245
L90.3854 66.5959
" />
<path d="M90.3854 66.5959
L90.3140 66.5245
" />
<path d="M90.3140 66.5245
L90.3854 66.4530
" />
<path d="M90.3854 66.4530
L90.3854 66.5959
" />
<path d="M91.0997 66.5959
L91.0997 65.0959
" />
<path d="M91.0997 65.0959
L91.4568 65.0959
" />
<path d="M91.4568 65.0959
L91.6711 65.1673
" />
<path d="M91.6711 65.1673
L91.8140 65.3102
" />
<path d="M91.8140 65.3102
L91.8854 65.4530
" />
<path d="M91.8854 65.4530
L91.9568 65.7387
" />
<path d="M91.9568 65.7387
L91.9568 65.9530
" />
<path d="M91.9568 65.9530
L91.8854 66.2387
" />
<path d="M91.8854 66.2387
L91.8140 66.3816
" />
<path d="M91.8140 66.3816
L91.6711 66.5245
" />
<path d="M91.6711 66.5245
L91.4568 66.5959
" />
<path d="M91.4568 66.5959
L91.0997 66.5959
" />
<path d="M92.5997 66.4530
L92.6711 66.5245
" />
<path d="M92.6711 66.5245
L92.5997 66.5959
" />
<path d="M92.5997 66.5959
L92.5283 66.5245
" />
<path d="M92.5283 66.5245
L92.5997 66.4530
" />
<path d="M92.5997 66.4530
L92.5997 66.5959
" />
<path d="M93.2426 66.1673
L93.9569 66.1673
" />
<path d="M93.0997 66.5959
L93.5997 65.0959
" />
<path d="M93.5997 65.0959
L94.0997 66.5959
" />
<path d="M94.5997 66.4530
L94.6711 66.5245
" />
<path d="M94.6711 66.5245
L94.5997 66.5959
" />
<path d="M94.5997 66.5959
L94.5283 66.5245
" />
<path d="M94.5283 66.5245
L94.5997 66.4530
" />
<path d="M94.5997 66.4530
L94.5997 66.5959
" />
<path d="M97.5998 66.5959
L97.5998 65.0959
" />
<path d="M97.7427 66.0245
L98.1712 66.5959
" />
<path d="M98.1712 65.5959
L97.5998 66.1673
" />
<path d="M98.8141 66.5959
L98.8141 65.5959
" />
<path d="M98.8141 65.0959
L98.7427 65.1673
" />
<path d="M98.7427 65.1673
L98.8141 65.2387
" />
<path d="M98.8141 65.2387
L98.8855 65.1673
" />
<path d="M98.8855 65.1673
L98.8141 65.0959
" />
<path d="M98.8141 65.0959
L98.8141 65.2387
" />
<path d="M100.1713 66.5245
L100.0284 66.5959
" />
<path d="M100.0284 66.5959
L99.7427 66.5959
" />
<path d="M99.7427 66.5959
L99.5998 66.5245
" />
<path d="M99.5998 66.5245
L99.5284 66.4530
" />
<path d="M99.5284 66.4530
L99.4570 66.3102
" />
<path d="M99.4570 66.3102
L99.4570 65.8816
" />
<path d="M99.4570 65.8816
L99.5284 65.7387
" />
<path d="M99.5284 65.7387
L99.5998 65.6673
" />
<path d="M99.5998 65.6673
L99.7427 65.5959
" />
<path d="M99.7427 65.5959
L100.0284 65.5959
" />
<path d="M100.0284 65.5959
L100.1713 65.6673
" />
<path d="M101.4570 66.5959
L101.4570 65.8102
" />
<path d="M101.4570 65.8102
L101.3855 65.6673
" />
<path d="M101.3855 65.6673
L101.2427 65.5959
" />
<path d="M101.2427 65.5959
L100.9570 65.5959
" />
<path d="M100.9570 65.5959
L100.8141 65.6673
" />
<path d="M101.4570 66.5245
L101.3141 66.5959
" />
<path d="M101.3141 66.5959
L100.9570 66.5959
" />
<path d="M100.9570 66.5959
L100.8141 66.5245
" />
<path d="M100.8141 66.5245
L100.7427 66.3816
" />
<path d="M100.7427 66.3816
L100.7427 66.2387
" />
<path d="M100.7427 66.2387
L100.8141 66.0959
" />
<path d="M100.8141 66.0959
L100.9570 66.0245
" />
<path d="M100.9570 66.0245
L101.3141 66.0245
" />
<path d="M101.3141 66.0245
L101.4570 65.9530
" />
<path d="M102.8141 66.5959
L102.8141 65.0959
" />
<path d="M102.8141 66.5245
L102.6712 66.5959
" />
<path d="M102.6712 66.5959
L102.3855 66.5959
" />
<path d="M102.3855 66.5959
L102.2426 66.5245
" />
<path d="M102.2426 66.5245
L102.1712 66.4530
" />
<path d="M102.1712 66.4530
L102.0998 66.3102
" />
<path d="M102.0998 66.3102
L102.0998 65.8816
" />
<path d="M102.0998 65.8816
L102.1712 65.7387
" />
<path d="M102.1712 65.7387
L102.2426 65.6673
" />
<path d="M102.2426 65.6673
L102.3855 65.5959
" />
<path d="M102.3855 65.5959
L102.6712 65.5959
" />
<path d="M102.6712 65.5959
L102.8141 65.6673
" />
<path d="M104.5283 65.0959
L105.5283 65.0959
" />
<path d="M105.5283 65.0959
L104.8855 66.5959
" />
<path d="M106.0998 66.4530
L106.1712 66.5245
" />
<path d="M106.1712 66.5245
L106.0998 66.5959
" />
<path d="M106.0998 66.5959
L106.0284 66.5245
" />
<path d="M106.0284 66.5245
L106.0998 66.4530
" />
<path d="M106.0998 66.4530
L106.0998 66.5959
" />
<path d="M107.0998 65.0959
L107.2427 65.0959
" />
<path d="M107.2427 65.0959
L107.3855 65.1673
" />
<path d="M107.3855 65.1673
L107.4570 65.2387
" />
<path d="M107.4570 65.2387
L107.5284 65.3816
" />
<path d="M107.5284 65.3816
L107.5998 65.6673
" />
<path d="M107.5998 65.6673
L107.5998 66.0245
" />
<path d="M107.5998 66.0245
L107.5284 66.3102
" />
<path d="M107.5284 66.3102
L107.4570 66.4530
" />
<path d="M107.4570 66.4530
L107.3855 66.5245
" />
<path d="M107.3855 66.5245
L107.2427 66.5959
" />
<path d="M107.2427 66.5959
L107.0998 66.5959
" />
<path d="M107.0998 66.5959
L106.9570 66.5245
" />
<path d="M106.9570 66.5245
L106.8855 66.4530
" />
<path d="M106.8855 66.4530
L106.8141 66.3102
" />
<path d="M106.8141 66.3102
L106.7427 66.0245
" />
<path d="M106.7427 66.0245
L106.7427 65.6673
" />
<path d="M106.7427 65.6673
L106.8141 65.3816
" />
<path d="M106.8141 65.3816
L106.8855 65.2387
" />
<path d="M106.8855 65.2387
L106.9570 65.1673
" />
<path d="M106.9570 65.1673
L107.0998 65.0959
" />
<path d="M108.2427 66.4530
L108.3141 66.5245
" />
<path d="M108.3141 66.5245
L108.2427 66.5959
" />
<path d="M108.2427 66.5959
L108.1713 66.5245
" />
<path d="M108.1713 66.5245
L108.2427 66.4530
" />
<path d="M108.2427 66.4530
L108.2427 66.5959
" />
<path d="M108.8141 65.0959
L109.8141 65.0959
" />
<path d="M109.8141 65.0959
L109.1713 66.5959
" />
</g><path d="M79.9996 61.5100
L187.9996 61.5100
" />
</g>
<g style="fill:#840000; fill-opacity:0.0; 
stroke:#840000; stroke-width:0.3000; stroke-opacity:1; 
stroke-linecap:round; stroke-linejoin:round;">
<text x="165.9996" y="63.8600"
textLength="6.3858" font-size="2.0000" lengthAdjust="spacingAndGlyphs"
text-anchor="start" opacity="0">Rev: </text>
<g class="stroked-text"><desc>Rev: </desc>
<path d="M167.4111 63.7883
L166.9111 63.0740
" />
<path d="M166.5540 63.7883
L166.5540 62.2883
" />
<path d="M166.5540 62.2883
L167.1254 62.2883
" />
<path d="M167.1254 62.2883
L167.2683 62.3597
" />
<path d="M167.2683 62.3597
L167.3397 62.4311
" />
<path d="M167.3397 62.4311
L167.4111 62.5740
" />
<path d="M167.4111 62.5740
L167.4111 62.7883
" />
<path d="M167.4111 62.7883
L167.3397 62.9311
" />
<path d="M167.3397 62.9311
L167.2683 63.0026
" />
<path d="M167.2683 63.0026
L167.1254 63.0740
" />
<path d="M167.1254 63.0740
L166.5540 63.0740
" />
<path d="M168.6254 63.7169
L168.4826 63.7883
" />
<path d="M168.4826 63.7883
L168.1969 63.7883
" />
<path d="M168.1969 63.7883
L168.0540 63.7169
" />
<path d="M168.0540 63.7169
L167.9826 63.5740
" />
<path d="M167.9826 63.5740
L167.9826 63.0026
" />
<path d="M167.9826 63.0026
L168.0540 62.8597
" />
<path d="M168.0540 62.8597
L168.1969 62.7883
" />
<path d="M168.1969 62.7883
L168.4826 62.7883
" />
<path d="M168.4826 62.7883
L168.6254 62.8597
" />
<path d="M168.6254 62.8597
L168.6969 63.0026
" />
<path d="M168.6969 63.0026
L168.6969 63.1454
" />
<path d="M168.6969 63.1454
L167.9826 63.2883
" />
<path d="M169.1968 62.7883
L169.5540 63.7883
" />
<path d="M169.5540 63.7883
L169.9111 62.7883
" />
<path d="M170.4826 63.6454
L170.5540 63.7169
" />
<path d="M170.5540 63.7169
L170.4826 63.7883
" />
<path d="M170.4826 63.7883
L170.4112 63.7169
" />
<path d="M170.4112 63.7169
L170.4826 63.6454
" />
<path d="M170.4826 63.6454
L170.4826 63.7883
" />
<path d="M170.4826 62.8597
L170.5540 62.9311
" />
<path d="M170.5540 62.9311
L170.4826 63.0026
" />
<path d="M170.4826 63.0026
L170.4112 62.9311
" />
<path d="M170.4112 62.9311
L170.4826 62.8597
" />
<path d="M170.4826 62.8597
L170.4826 63.0026
" />
</g></g>
<g style="fill:#840000; fill-opacity:0.0; 
stroke:#840000; stroke-width:0.1524; stroke-opacity:1; 
stroke-linecap:round; stroke-linejoin:round;">
<text x="80.9996" y="63.8600"
textLength="11.6573" font-size="2.0000" lengthAdjust="spacingAndGlyphs"
text-anchor="start" opacity="0">Size: User</text>
<g class="stroked-text"><desc>Size: User</desc>
<path d="M81.3855 63.7245
L81.5998 63.7959
" />
<path d="M81.5998 63.7959
L81.9569 63.7959
" />
<path d="M81.9569 63.7959
L82.0998 63.7245
" />
<path d="M82.0998 63.7245
L82.1712 63.6530
" />
<path d="M82.1712 63.6530
L82.2426 63.5102
" />
<path d="M82.2426 63.5102
L82.2426 63.3673
" />
<path d="M82.2426 63.3673
L82.1712 63.2245
" />
<path d="M82.1712 63.2245
L82.0998 63.1530
" />
<path d="M82.0998 63.1530
L81.9569 63.0816
" />
<path d="M81.9569 63.0816
L81.6712 63.0102
" />
<path d="M81.6712 63.0102
L81.5283 62.9387
" />
<path d="M81.5283 62.9387
L81.4569 62.8673
" />
<path d="M81.4569 62.8673
L81.3855 62.7245
" />
<path d="M81.3855 62.7245
L81.3855 62.5816
" />
<path d="M81.3855 62.5816
L81.4569 62.4387
" />
<path d="M81.4569 62.4387
L81.5283 62.3673
" />
<path d="M81.5283 62.3673
L81.6712 62.2959
" />
<path d="M81.6712 62.2959
L82.0283 62.2959
" />
<path d="M82.0283 62.2959
L82.2426 62.3673
" />
<path d="M82.8855 63.7959
L82.8855 62.7959
" />
<path d="M82.8855 62.2959
L82.8141 62.3673
" />
<path d="M82.8141 62.3673
L82.8855 62.4387
" />
<path d="M82.8855 62.4387
L82.9569 62.3673
" />
<path d="M82.9569 62.3673
L82.8855 62.2959
" />
<path d="M82.8855 62.2959
L82.8855 62.4387
" />
<path d="M83.4569 62.7959
L84.2427 62.7959
" />
<path d="M84.2427 62.7959
L83.4569 63.7959
" />
<path d="M83.4569 63.7959
L84.2427 63.7959
" />
<path d="M85.3855 63.7245
L85.2427 63.7959
" />
<path d="M85.2427 63.7959
L84.9570 63.7959
" />
<path d="M84.9570 63.7959
L84.8141 63.7245
" />
<path d="M84.8141 63.7245
L84.7427 63.5816
" />
<path d="M84.7427 63.5816
L84.7427 63.0102
" />
<path d="M84.7427 63.0102
L84.8141 62.8673
" />
<path d="M84.8141 62.8673
L84.9570 62.7959
" />
<path d="M84.9570 62.7959
L85.2427 62.7959
" />
<path d="M85.2427 62.7959
L85.3855 62.8673
" />
<path d="M85.3855 62.8673
L85.4570 63.0102
" />
<path d="M85.4570 63.0102
L85.4570 63.1530
" />
<path d="M85.4570 63.1530
L84.7427 63.2959
" />
<path d="M86.0998 63.6530
L86.1712 63.7245
" />
<path d="M86.1712 63.7245
L86.0998 63.7959
" />
<path d="M86.0998 63.7959
L86.0284 63.7245
" />
<path d="M86.0284 63.7245
L86.0998 63.6530
" />
<path d="M86.0998 63.6530
L86.0998 63.7959
" />
<path d="M86.0998 62.8673
L86.1712 62.9387
" />
<path d="M86.1712 62.9387
L86.0998 63.0102
" />
<path d="M86.0998 63.0102
L86.0284 62.9387
" />
<path d="M86.0284 62.9387
L86.0998 62.8673
" />
<path d="M86.0998 62.8673
L86.0998 63.0102
" />
<path d="M87.9570 62.2959
L87.9570 63.5102
" />
<path d="M87.9570 63.5102
L88.0284 63.6530
" />
<path d="M88.0284 63.6530
L88.0999 63.7245
" />
<path d="M88.0999 63.7245
L88.2427 63.7959
" />
<path d="M88.2427 63.7959
L88.5284 63.7959
" />
<path d="M88.5284 63.7959
L88.6713 63.7245
" />
<path d="M88.6713 63.7245
L88.7427 63.6530
" />
<path d="M88.7427 63.6530
L88.8141 63.5102
" />
<path d="M88.8141 63.5102
L88.8141 62.2959
" />
<path d="M89.4570 63.7245
L89.5998 63.7959
" />
<path d="M89.5998 63.7959
L89.8855 63.7959
" />
<path d="M89.8855 63.7959
L90.0284 63.7245
" />
<path d="M90.0284 63.7245
L90.0998 63.5816
" />
<path d="M90.0998 63.5816
L90.0998 63.5102
" />
<path d="M90.0998 63.5102
L90.0284 63.3673
" />
<path d="M90.0284 63.3673
L89.8855 63.2959
" />
<path d="M89.8855 63.2959
L89.6713 63.2959
" />
<path d="M89.6713 63.2959
L89.5284 63.2245
" />
<path d="M89.5284 63.2245
L89.4570 63.0816
" />
<path d="M89.4570 63.0816
L89.4570 63.0102
" />
<path d="M89.4570 63.0102
L89.5284 62.8673
" />
<path d="M89.5284 62.8673
L89.6713 62.7959
" />
<path d="M89.6713 62.7959
L89.8855 62.7959
" />
<path d="M89.8855 62.7959
L90.0284 62.8673
" />
<path d="M91.3141 63.7245
L91.1713 63.7959
" />
<path d="M91.1713 63.7959
L90.8856 63.7959
" />
<path d="M90.8856 63.7959
L90.7427 63.7245
" />
<path d="M90.7427 63.7245
L90.6713 63.5816
" />
<path d="M90.6713 63.5816
L90.6713 63.0102
" />
<path d="M90.6713 63.0102
L90.7427 62.8673
" />
<path d="M90.7427 62.8673
L90.8856 62.7959
" />
<path d="M90.8856 62.7959
L91.1713 62.7959
" />
<path d="M91.1713 62.7959
L91.3141 62.8673
" />
<path d="M91.3141 62.8673
L91.3856 63.0102
" />
<path d="M91.3856 63.0102
L91.3856 63.1530
" />
<path d="M91.3856 63.1530
L90.6713 63.2959
" />
<path d="M92.0284 63.7959
L92.0284 62.7959
" />
<path d="M92.0284 63.0816
L92.0998 62.9387
" />
<path d="M92.0998 62.9387
L92.1713 62.8673
" />
<path d="M92.1713 62.8673
L92.3141 62.7959
" />
<path d="M92.3141 62.7959
L92.4570 62.7959
" />
</g><text x="165.9996" y="66.6600"
textLength="8.5144" font-size="2.0000" lengthAdjust="spacingAndGlyphs"
text-anchor="start" opacity="0">Id: 1/1</text>
<g class="stroked-text"><desc>Id: 1/1</desc>
<path d="M166.4569 66.5959
L166.4569 65.0959
" />
<path d="M167.8141 66.5959
L167.8141 65.0959
" />
<path d="M167.8141 66.5245
L167.6712 66.5959
" />
<path d="M167.6712 66.5959
L167.3855 66.5959
" />
<path d="M167.3855 66.5959
L167.2426 66.5245
" />
<path d="M167.2426 66.5245
L167.1712 66.4530
" />
<path d="M167.1712 66.4530
L167.0998 66.3102
" />
<path d="M167.0998 66.3102
L167.0998 65.8816
" />
<path d="M167.0998 65.8816
L167.1712 65.7387
" />
<path d="M167.1712 65.7387
L167.2426 65.6673
" />
<path d="M167.2426 65.6673
L167.3855 65.5959
" />
<path d="M167.3855 65.5959
L167.6712 65.5959
" />
<path d="M167.6712 65.5959
L167.8141 65.6673
" />
<path d="M168.5283 66.4530
L168.5997 66.5245
" />
<path d="M168.5997 66.5245
L168.5283 66.5959
" />
<path d="M168.5283 66.5959
L168.4569 66.5245
" />
<path d="M168.4569 66.5245
L168.5283 66.4530
" />
<path d="M168.5283 66.4530
L168.5283 66.5959
" />
<path d="M168.5283 65.6673
L168.5997 65.7387
" />
<path d="M168.5997 65.7387
L168.5283 65.8102
" />
<path d="M168.5283 65.8102
L168.4569 65.7387
" />
<path d="M168.4569 65.7387
L168.5283 65.6673
" />
<path d="M168.5283 65.6673
L168.5283 65.8102
" />
<path d="M171.1712 66.5959
L170.3141 66.5959
" />
<path d="M170.7426 66.5959
L170.7426 65.0959
" />
<path d="M170.7426 65.0959
L170.5998 65.3102
" />
<path d="M170.5998 65.3102
L170.4569 65.4530
" />
<path d="M170.4569 65.4530
L170.3141 65.5245
" />
<path d="M172.8855 65.0245
L171.5998 66.9530
" />
<path d="M174.1712 66.5959
L173.3141 66.5959
" />
<path d="M173.7426 66.5959
L173.7426 65.0959
" />
<path d="M173.7426 65.0959
L173.5998 65.3102
" />
<path d="M173.5998 65.3102
L173.4569 65.4530
" />
<path d="M173.4569 65.4530
L173.3141 65.5245
" />
</g><path d="M79.9996 57.5100
L187.9996 57.5100
" />
</g>
<g style="fill:#840000; fill-opacity:0.0; 
stroke:#840000; stroke-width:0.4000; stroke-opacity:1; 
stroke-linecap:round; stroke-linejoin:round;">
<text x="80.9996" y="60.3100"
textLength="47.8474" font-size="2.6666" lengthAdjust="spacingAndGlyphs"
text-anchor="start" opacity="0">Title: Mokro - Moisture sensor</text>
<g class="stroked-text"><desc>Title: Mokro - Moisture sensor</desc>
<path d="M81.6912 58.2144
L82.8341 58.2144
" />
<path d="M82.0127 60.2144
L82.2627 58.2144
" />
<path d="M83.2507 60.2144
L83.4174 58.8811
" />
<path d="M83.5007 58.2144
L83.3936 58.3096
" />
<path d="M83.3936 58.3096
L83.4769 58.4049
" />
<path d="M83.4769 58.4049
L83.5841 58.3096
" />
<path d="M83.5841 58.3096
L83.5007 58.2144
" />
<path d="M83.5007 58.2144
L83.4769 58.4049
" />
<path d="M84.0841 58.8811
L84.8460 58.8811
" />
<path d="M84.4531 58.2144
L84.2389 59.9287
" />
<path d="M84.2389 59.9287
L84.3103 60.1192
" />
<path d="M84.3103 60.1192
L84.4889 60.2144
" />
<path d="M84.4889 60.2144
L84.6793 60.2144
" />
<path d="M85.6318 60.2144
L85.4532 60.1192
" />
<path d="M85.4532 60.1192
L85.3818 59.9287
" />
<path d="M85.3818 59.9287
L85.5960 58.2144
" />
<path d="M87.1674 60.1192
L86.9651 60.2144
" />
<path d="M86.9651 60.2144
L86.5841 60.2144
" />
<path d="M86.5841 60.2144
L86.4055 60.1192
" />
<path d="M86.4055 60.1192
L86.3341 59.9287
" />
<path d="M86.3341 59.9287
L86.4294 59.1668
" />
<path d="M86.4294 59.1668
L86.5484 58.9763
" />
<path d="M86.5484 58.9763
L86.7508 58.8811
" />
<path d="M86.7508 58.8811
L87.1317 58.8811
" />
<path d="M87.1317 58.8811
L87.3103 58.9763
" />
<path d="M87.3103 58.9763
L87.3817 59.1668
" />
<path d="M87.3817 59.1668
L87.3579 59.3572
" />
<path d="M87.3579 59.3572
L86.3817 59.5477
" />
<path d="M88.1317 60.0239
L88.2151 60.1192
" />
<path d="M88.2151 60.1192
L88.1079 60.2144
" />
<path d="M88.1079 60.2144
L88.0246 60.1192
" />
<path d="M88.0246 60.1192
L88.1317 60.0239
" />
<path d="M88.1317 60.0239
L88.1079 60.2144
" />
<path d="M88.2627 58.9763
L88.3460 59.0715
" />
<path d="M88.3460 59.0715
L88.2389 59.1668
" />
<path d="M88.2389 59.1668
L88.1556 59.0715
" />
<path d="M88.1556 59.0715
L88.2627 58.9763
" />
<path d="M88.2627 58.9763
L88.2389 59.1668
" />
<path d="M90.5841 60.2144
L90.8341 58.2144
" />
<path d="M90.8341 58.2144
L91.3222 59.6430
" />
<path d="M91.3222 59.6430
L92.1675 58.2144
" />
<path d="M92.1675 58.2144
L91.9175 60.2144
" />
<path d="M93.1556 60.2144
L92.9770 60.1192
" />
<path d="M92.9770 60.1192
L92.8936 60.0239
" />
<path d="M92.8936 60.0239
L92.8222 59.8334
" />
<path d="M92.8222 59.8334
L92.8936 59.2620
" />
<path d="M92.8936 59.2620
L93.0127 59.0715
" />
<path d="M93.0127 59.0715
L93.1198 58.9763
" />
<path d="M93.1198 58.9763
L93.3222 58.8811
" />
<path d="M93.3222 58.8811
L93.6079 58.8811
" />
<path d="M93.6079 58.8811
L93.7865 58.9763
" />
<path d="M93.7865 58.9763
L93.8698 59.0715
" />
<path d="M93.8698 59.0715
L93.9413 59.2620
" />
<path d="M93.9413 59.2620
L93.8698 59.8334
" />
<path d="M93.8698 59.8334
L93.7508 60.0239
" />
<path d="M93.7508 60.0239
L93.6436 60.1192
" />
<path d="M93.6436 60.1192
L93.4413 60.2144
" />
<path d="M93.4413 60.2144
L93.1556 60.2144
" />
<path d="M94.6793 60.2144
L94.9293 58.2144
" />
<path d="M94.9651 59.4525
L95.4412 60.2144
" />
<path d="M95.6079 58.8811
L94.7508 59.6430
" />
<path d="M96.2983 60.2144
L96.4650 58.8811
" />
<path d="M96.4174 59.2620
L96.5364 59.0715
" />
<path d="M96.5364 59.0715
L96.6436 58.9763
" />
<path d="M96.6436 58.9763
L96.8460 58.8811
" />
<path d="M96.8460 58.8811
L97.0364 58.8811
" />
<path d="M97.8222 60.2144
L97.6436 60.1192
" />
<path d="M97.6436 60.1192
L97.5602 60.0239
" />
<path d="M97.5602 60.0239
L97.4888 59.8334
" />
<path d="M97.4888 59.8334
L97.5602 59.2620
" />
<path d="M97.5602 59.2620
L97.6793 59.0715
" />
<path d="M97.6793 59.0715
L97.7864 58.9763
" />
<path d="M97.7864 58.9763
L97.9888 58.8811
" />
<path d="M97.9888 58.8811
L98.2745 58.8811
" />
<path d="M98.2745 58.8811
L98.4531 58.9763
" />
<path d="M98.4531 58.9763
L98.5364 59.0715
" />
<path d="M98.5364 59.0715
L98.6079 59.2620
" />
<path d="M98.6079 59.2620
L98.5364 59.8334
" />
<path d="M98.5364 59.8334
L98.4174 60.0239
" />
<path d="M98.4174 60.0239
L98.3102 60.1192
" />
<path d="M98.3102 60.1192
L98.1079 60.2144
" />
<path d="M98.1079 60.2144
L97.8222 60.2144
" />
<path d="M100.9650 59.4525
L102.4888 59.4525
" />
<path d="M104.8697 60.2144
L105.1197 58.2144
" />
<path d="M105.1197 58.2144
L105.6078 59.6430
" />
<path d="M105.6078 59.6430
L106.4531 58.2144
" />
<path d="M106.4531 58.2144
L106.2031 60.2144
" />
<path d="M107.4412 60.2144
L107.2626 60.1192
" />
<path d="M107.2626 60.1192
L107.1792 60.0239
" />
<path d="M107.1792 60.0239
L107.1078 59.8334
" />
<path d="M107.1078 59.8334
L107.1792 59.2620
" />
<path d="M107.1792 59.2620
L107.2983 59.0715
" />
<path d="M107.2983 59.0715
L107.4054 58.9763
" />
<path d="M107.4054 58.9763
L107.6078 58.8811
" />
<path d="M107.6078 58.8811
L107.8935 58.8811
" />
<path d="M107.8935 58.8811
L108.0721 58.9763
" />
<path d="M108.0721 58.9763
L108.1554 59.0715
" />
<path d="M108.1554 59.0715
L108.2269 59.2620
" />
<path d="M108.2269 59.2620
L108.1554 59.8334
" />
<path d="M108.1554 59.8334
L108.0364 60.0239
" />
<path d="M108.0364 60.0239
L107.9292 60.1192
" />
<path d="M107.9292 60.1192
L107.7269 60.2144
" />
<path d="M107.7269 60.2144
L107.4412 60.2144
" />
<path d="M108.9649 60.2144
L109.1316 58.8811
" />
<path d="M109.2149 58.2144
L109.1078 58.3096
" />
<path d="M109.1078 58.3096
L109.1911 58.4049
" />
<path d="M109.1911 58.4049
L109.2983 58.3096
" />
<path d="M109.2983 58.3096
L109.2149 58.2144
" />
<path d="M109.2149 58.2144
L109.1911 58.4049
" />
<path d="M109.8340 60.1192
L110.0126 60.2144
" />
<path d="M110.0126 60.2144
L110.3935 60.2144
" />
<path d="M110.3935 60.2144
L110.5959 60.1192
" />
<path d="M110.5959 60.1192
L110.7150 59.9287
" />
<path d="M110.7150 59.9287
L110.7269 59.8334
" />
<path d="M110.7269 59.8334
L110.6554 59.6430
" />
<path d="M110.6554 59.6430
L110.4769 59.5477
" />
<path d="M110.4769 59.5477
L110.1911 59.5477
" />
<path d="M110.1911 59.5477
L110.0126 59.4525
" />
<path d="M110.0126 59.4525
L109.9411 59.2620
" />
<path d="M109.9411 59.2620
L109.9531 59.1668
" />
<path d="M109.9531 59.1668
L110.0721 58.9763
" />
<path d="M110.0721 58.9763
L110.2745 58.8811
" />
<path d="M110.2745 58.8811
L110.5602 58.8811
" />
<path d="M110.5602 58.8811
L110.7388 58.9763
" />
<path d="M111.4173 58.8811
L112.1792 58.8811
" />
<path d="M111.7863 58.2144
L111.5721 59.9287
" />
<path d="M111.5721 59.9287
L111.6435 60.1192
" />
<path d="M111.6435 60.1192
L111.8221 60.2144
" />
<path d="M111.8221 60.2144
L112.0125 60.2144
" />
<path d="M113.7030 58.8811
L113.5364 60.2144
" />
<path d="M112.8459 58.8811
L112.7150 59.9287
" />
<path d="M112.7150 59.9287
L112.7864 60.1192
" />
<path d="M112.7864 60.1192
L112.9650 60.2144
" />
<path d="M112.9650 60.2144
L113.2507 60.2144
" />
<path d="M113.2507 60.2144
L113.4530 60.1192
" />
<path d="M113.4530 60.1192
L113.5602 60.0239
" />
<path d="M114.4887 60.2144
L114.6554 58.8811
" />
<path d="M114.6078 59.2620
L114.7268 59.0715
" />
<path d="M114.7268 59.0715
L114.8340 58.9763
" />
<path d="M114.8340 58.9763
L115.0364 58.8811
" />
<path d="M115.0364 58.8811
L115.2268 58.8811
" />
<path d="M116.5006 60.1192
L116.2983 60.2144
" />
<path d="M116.2983 60.2144
L115.9173 60.2144
" />
<path d="M115.9173 60.2144
L115.7387 60.1192
" />
<path d="M115.7387 60.1192
L115.6673 59.9287
" />
<path d="M115.6673 59.9287
L115.7626 59.1668
" />
<path d="M115.7626 59.1668
L115.8816 58.9763
" />
<path d="M115.8816 58.9763
L116.0840 58.8811
" />
<path d="M116.0840 58.8811
L116.4649 58.8811
" />
<path d="M116.4649 58.8811
L116.6435 58.9763
" />
<path d="M116.6435 58.9763
L116.7149 59.1668
" />
<path d="M116.7149 59.1668
L116.6911 59.3572
" />
<path d="M116.6911 59.3572
L115.7149 59.5477
" />
<path d="M118.8816 60.1192
L119.0602 60.2144
" />
<path d="M119.0602 60.2144
L119.4411 60.2144
" />
<path d="M119.4411 60.2144
L119.6435 60.1192
" />
<path d="M119.6435 60.1192
L119.7626 59.9287
" />
<path d="M119.7626 59.9287
L119.7745 59.8334
" />
<path d="M119.7745 59.8334
L119.7030 59.6430
" />
<path d="M119.7030 59.6430
L119.5245 59.5477
" />
<path d="M119.5245 59.5477
L119.2387 59.5477
" />
<path d="M119.2387 59.5477
L119.0602 59.4525
" />
<path d="M119.0602 59.4525
L118.9887 59.2620
" />
<path d="M118.9887 59.2620
L119.0007 59.1668
" />
<path d="M119.0007 59.1668
L119.1197 58.9763
" />
<path d="M119.1197 58.9763
L119.3221 58.8811
" />
<path d="M119.3221 58.8811
L119.6078 58.8811
" />
<path d="M119.6078 58.8811
L119.7864 58.9763
" />
<path d="M121.3577 60.1192
L121.1554 60.2144
" />
<path d="M121.1554 60.2144
L120.7744 60.2144
" />
<path d="M120.7744 60.2144
L120.5958 60.1192
" />
<path d="M120.5958 60.1192
L120.5244 59.9287
" />
<path d="M120.5244 59.9287
L120.6197 59.1668
" />
<path d="M120.6197 59.1668
L120.7387 58.9763
" />
<path d="M120.7387 58.9763
L120.9411 58.8811
" />
<path d="M120.9411 58.8811
L121.3220 58.8811
" />
<path d="M121.3220 58.8811
L121.5006 58.9763
" />
<path d="M121.5006 58.9763
L121.5720 59.1668
" />
<path d="M121.5720 59.1668
L121.5482 59.3572
" />
<path d="M121.5482 59.3572
L120.5720 59.5477
" />
<path d="M122.4649 58.8811
L122.2982 60.2144
" />
<path d="M122.4411 59.0715
L122.5482 58.9763
" />
<path d="M122.5482 58.9763
L122.7506 58.8811
" />
<path d="M122.7506 58.8811
L123.0363 58.8811
" />
<path d="M123.0363 58.8811
L123.2149 58.9763
" />
<path d="M123.2149 58.9763
L123.2863 59.1668
" />
<path d="M123.2863 59.1668
L123.1554 60.2144
" />
<path d="M124.0244 60.1192
L124.2030 60.2144
" />
<path d="M124.2030 60.2144
L124.5839 60.2144
" />
<path d="M124.5839 60.2144
L124.7863 60.1192
" />
<path d="M124.7863 60.1192
L124.9054 59.9287
" />
<path d="M124.9054 59.9287
L124.9173 59.8334
" />
<path d="M124.9173 59.8334
L124.8458 59.6430
" />
<path d="M124.8458 59.6430
L124.6673 59.5477
" />
<path d="M124.6673 59.5477
L124.3815 59.5477
" />
<path d="M124.3815 59.5477
L124.2030 59.4525
" />
<path d="M124.2030 59.4525
L124.1315 59.2620
" />
<path d="M124.1315 59.2620
L124.1435 59.1668
" />
<path d="M124.1435 59.1668
L124.2625 58.9763
" />
<path d="M124.2625 58.9763
L124.4649 58.8811
" />
<path d="M124.4649 58.8811
L124.7506 58.8811
" />
<path d="M124.7506 58.8811
L124.9292 58.9763
" />
<path d="M126.0125 60.2144
L125.8339 60.1192
" />
<path d="M125.8339 60.1192
L125.7505 60.0239
" />
<path d="M125.7505 60.0239
L125.6791 59.8334
" />
<path d="M125.6791 59.8334
L125.7505 59.2620
" />
<path d="M125.7505 59.2620
L125.8696 59.0715
" />
<path d="M125.8696 59.0715
L125.9767 58.9763
" />
<path d="M125.9767 58.9763
L126.1791 58.8811
" />
<path d="M126.1791 58.8811
L126.4648 58.8811
" />
<path d="M126.4648 58.8811
L126.6434 58.9763
" />
<path d="M126.6434 58.9763
L126.7267 59.0715
" />
<path d="M126.7267 59.0715
L126.7982 59.2620
" />
<path d="M126.7982 59.2620
L126.7267 59.8334
" />
<path d="M126.7267 59.8334
L126.6077 60.0239
" />
<path d="M126.6077 60.0239
L126.5005 60.1192
" />
<path d="M126.5005 60.1192
L126.2982 60.2144
" />
<path d="M126.2982 60.2144
L126.0125 60.2144
" />
<path d="M127.5362 60.2144
L127.7029 58.8811
" />
<path d="M127.6553 59.2620
L127.7743 59.0715
" />
<path d="M127.7743 59.0715
L127.8815 58.9763
" />
<path d="M127.8815 58.9763
L128.0839 58.8811
" />
<path d="M128.0839 58.8811
L128.2743 58.8811
" />
</g></g>
<g style="fill:#840000; fill-opacity:0.0; 
stroke:#840000; stroke-width:0.1524; stroke-opacity:1; 
stroke-linecap:round; stroke-linejoin:round;">
<text x="80.9996" y="56.4600"
textLength="52.6570" font-size="2.0000" lengthAdjust="spacingAndGlyphs"
text-anchor="start" opacity="0">File: moisture_sensor_circuit_design.kicad_sch</text>
<g class="stroked-text"><desc>File: moisture_sensor_circuit_design.kicad_sch</desc>
<path d="M81.9569 55.6102
L81.4569 55.6102
" />
<path d="M81.4569 56.3959
L81.4569 54.8959
" />
<path d="M81.4569 54.8959
L82.1712 54.8959
" />
<path d="M82.7426 56.3959
L82.7426 55.3959
" />
<path d="M82.7426 54.8959
L82.6712 54.9673
" />
<path d="M82.6712 54.9673
L82.7426 55.0387
" />
<path d="M82.7426 55.0387
L82.8140 54.9673
" />
<path d="M82.8140 54.9673
L82.7426 54.8959
" />
<path d="M82.7426 54.8959
L82.7426 55.0387
" />
<path d="M83.6712 56.3959
L83.5283 56.3245
" />
<path d="M83.5283 56.3245
L83.4569 56.1816
" />
<path d="M83.4569 56.1816
L83.4569 54.8959
" />
<path d="M84.8140 56.3245
L84.6712 56.3959
" />
<path d="M84.6712 56.3959
L84.3855 56.3959
" />
<path d="M84.3855 56.3959
L84.2426 56.3245
" />
<path d="M84.2426 56.3245
L84.1712 56.1816
" />
<path d="M84.1712 56.1816
L84.1712 55.6102
" />
<path d="M84.1712 55.6102
L84.2426 55.4673
" />
<path d="M84.2426 55.4673
L84.3855 55.3959
" />
<path d="M84.3855 55.3959
L84.6712 55.3959
" />
<path d="M84.6712 55.3959
L84.8140 55.4673
" />
<path d="M84.8140 55.4673
L84.8855 55.6102
" />
<path d="M84.8855 55.6102
L84.8855 55.7530
" />
<path d="M84.8855 55.7530
L84.1712 55.8959
" />
<path d="M85.5283 56.2530
L85.5997 56.3245
" />
<path d="M85.5997 56.3245
L85.5283 56.3959
" />
<path d="M85.5283 56.3959
L85.4569 56.3245
" />
<path d="M85.4569 56.3245
L85.5283 56.2530
" />
<path d="M85.5283 56.2530
L85.5283 56.3959
" />
<path d="M85.5283 55.4673
L85.5997 55.5387
" />
<path d="M85.5997 55.5387
L85.5283 55.6102
" />
<path d="M85.5283 55.6102
L85.4569 55.5387
" />
<path d="M85.4569 55.5387
L85.5283 55.4673
" />
<path d="M85.5283 55.4673
L85.5283 55.6102
" />
<path d="M87.3855 56.3959
L87.3855 55.3959
" />
<path d="M87.3855 55.5387
L87.4569 55.4673
" />
<path d="M87.4569 55.4673
L87.5998 55.3959
" />
<path d="M87.5998 55.3959
L87.8141 55.3959
" />
<path d="M87.8141 55.3959
L87.9569 55.4673
" />
<path d="M87.9569 55.4673
L88.0284 55.6102
" />
<path d="M88.0284 55.6102
L88.0284 56.3959
" />
<path d="M88.0284 55.6102
L88.0998 55.4673
" />
<path d="M88.0998 55.4673
L88.2426 55.3959
" />
<path d="M88.2426 55.3959
L88.4569 55.3959
" />
<path d="M88.4569 55.3959
L88.5998 55.4673
" />
<path d="M88.5998 55.4673
L88.6712 55.6102
" />
<path d="M88.6712 55.6102
L88.6712 56.3959
" />
<path d="M89.5998 56.3959
L89.4569 56.3245
" />
<path d="M89.4569 56.3245
L89.3855 56.2530
" />
<path d="M89.3855 56.2530
L89.3141 56.1102
" />
<path d="M89.3141 56.1102
L89.3141 55.6816
" />
<path d="M89.3141 55.6816
L89.3855 55.5387
" />
<path d="M89.3855 55.5387
L89.4569 55.4673
" />
<path d="M89.4569 55.4673
L89.5998 55.3959
" />
<path d="M89.5998 55.3959
L89.8141 55.3959
" />
<path d="M89.8141 55.3959
L89.9569 55.4673
" />
<path d="M89.9569 55.4673
L90.0284 55.5387
" />
<path d="M90.0284 55.5387
L90.0998 55.6816
" />
<path d="M90.0998 55.6816
L90.0998 56.1102
" />
<path d="M90.0998 56.1102
L90.0284 56.2530
" />
<path d="M90.0284 56.2530
L89.9569 56.3245
" />
<path d="M89.9569 56.3245
L89.8141 56.3959
" />
<path d="M89.8141 56.3959
L89.5998 56.3959
" />
<path d="M90.7426 56.3959
L90.7426 55.3959
" />
<path d="M90.7426 54.8959
L90.6712 54.9673
" />
<path d="M90.6712 54.9673
L90.7426 55.0387
" />
<path d="M90.7426 55.0387
L90.8140 54.9673
" />
<path d="M90.8140 54.9673
L90.7426 54.8959
" />
<path d="M90.7426 54.8959
L90.7426 55.0387
" />
<path d="M91.3855 56.3245
L91.5283 56.3959
" />
<path d="M91.5283 56.3959
L91.8140 56.3959
" />
<path d="M91.8140 56.3959
L91.9569 56.3245
" />
<path d="M91.9569 56.3245
L92.0283 56.1816
" />
<path d="M92.0283 56.1816
L92.0283 56.1102
" />
<path d="M92.0283 56.1102
L91.9569 55.9673
" />
<path d="M91.9569 55.9673
L91.8140 55.8959
" />
<path d="M91.8140 55.8959
L91.5998 55.8959
" />
<path d="M91.5998 55.8959
L91.4569 55.8245
" />
<path d="M91.4569 55.8245
L91.3855 55.6816
" />
<path d="M91.3855 55.6816
L91.3855 55.6102
" />
<path d="M91.3855 55.6102
L91.4569 55.4673
" />
<path d="M91.4569 55.4673
L91.5998 55.3959
" />
<path d="M91.5998 55.3959
L91.8140 55.3959
" />
<path d="M91.8140 55.3959
L91.9569 55.4673
" />
<path d="M92.4569 55.3959
L93.0283 55.3959
" />
<path d="M92.6712 54.8959
L92.6712 56.1816
" />
<path d="M92.6712 56.1816
L92.7426 56.3245
" />
<path d="M92.7426 56.3245
L92.8855 56.3959
" />
<path d="M92.8855 56.3959
L93.0283 56.3959
" />
<path d="M94.1712 55.3959
L94.1712 56.3959
" />
<path d="M93.5283 55.3959
L93.5283 56.1816
" />
<path d="M93.5283 56.1816
L93.5997 56.3245
" />
<path d="M93.5997 56.3245
L93.7426 56.3959
" />
<path d="M93.7426 56.3959
L93.9569 56.3959
" />
<path d="M93.9569 56.3959
L94.0997 56.3245
" />
<path d="M94.0997 56.3245
L94.1712 56.2530
" />
<path d="M94.8854 56.3959
L94.8854 55.3959
" />
<path d="M94.8854 55.6816
L94.9568 55.5387
" />
<path d="M94.9568 55.5387
L95.0283 55.4673
" />
<path d="M95.0283 55.4673
L95.1711 55.3959
" />
<path d="M95.1711 55.3959
L95.3140 55.3959
" />
<path d="M96.3854 56.3245
L96.2426 56.3959
" />
<path d="M96.2426 56.3959
L95.9569 56.3959
" />
<path d="M95.9569 56.3959
L95.8140 56.3245
" />
<path d="M95.8140 56.3245
L95.7426 56.1816
" />
<path d="M95.7426 56.1816
L95.7426 55.6102
" />
<path d="M95.7426 55.6102
L95.8140 55.4673
" />
<path d="M95.8140 55.4673
L95.9569 55.3959
" />
<path d="M95.9569 55.3959
L96.2426 55.3959
" />
<path d="M96.2426 55.3959
L96.3854 55.4673
" />
<path d="M96.3854 55.4673
L96.4569 55.6102
" />
<path d="M96.4569 55.6102
L96.4569 55.7530
" />
<path d="M96.4569 55.7530
L95.7426 55.8959
" />
<path d="M96.7426 56.5387
L97.8854 56.5387
" />
<path d="M98.1712 56.3245
L98.3140 56.3959
" />
<path d="M98.3140 56.3959
L98.5997 56.3959
" />
<path d="M98.5997 56.3959
L98.7426 56.3245
" />
<path d="M98.7426 56.3245
L98.8140 56.1816
" />
<path d="M98.8140 56.1816
L98.8140 56.1102
" />
<path d="M98.8140 56.1102
L98.7426 55.9673
" />
<path d="M98.7426 55.9673
L98.5997 55.8959
" />
<path d="M98.5997 55.8959
L98.3855 55.8959
" />
<path d="M98.3855 55.8959
L98.2426 55.8245
" />
<path d="M98.2426 55.8245
L98.1712 55.6816
" />
<path d="M98.1712 55.6816
L98.1712 55.6102
" />
<path d="M98.1712 55.6102
L98.2426 55.4673
" />
<path d="M98.2426 55.4673
L98.3855 55.3959
" />
<path d="M98.3855 55.3959
L98.5997 55.3959
" />
<path d="M98.5997 55.3959
L98.7426 55.4673
" />
<path d="M100.0283 56.3245
L99.8855 56.3959
" />
<path d="M99.8855 56.3959
L99.5998 56.3959
" />
<path d="M99.5998 56.3959
L99.4569 56.3245
" />
<path d="M99.4569 56.3245
L99.3855 56.1816
" />
<path d="M99.3855 56.1816
L99.3855 55.6102
" />
<path d="M99.3855 55.6102
L99.4569 55.4673
" />
<path d="M99.4569 55.4673
L99.5998 55.3959
" />
<path d="M99.5998 55.3959
L99.8855 55.3959
" />
<path d="M99.8855 55.3959
L100.0283 55.4673
" />
<path d="M100.0283 55.4673
L100.0998 55.6102
" />
<path d="M100.0998 55.6102
L100.0998 55.7530
" />
<path d="M100.0998 55.7530
L99.3855 55.8959
" />
<path d="M100.7426 55.3959
L100.7426 56.3959
" />
<path d="M100.7426 55.5387
L100.8140 55.4673
" />
<path d="M100.8140 55.4673
L100.9569 55.3959
" />
<path d="M100.9569 55.3959
L101.1712 55.3959
" />
<path d="M101.1712 55.3959
L101.3140 55.4673
" />
<path d="M101.3140 55.4673
L101.3855 55.6102
" />
<path d="M101.3855 55.6102
L101.3855 56.3959
" />
<path d="M102.0283 56.3245
L102.1711 56.3959
" />
<path d="M102.1711 56.3959
L102.4568 56.3959
" />
<path d="M102.4568 56.3959
L102.5997 56.3245
" />
<path d="M102.5997 56.3245
L102.6711 56.1816
" />
<path d="M102.6711 56.1816
L102.6711 56.1102
" />
<path d="M102.6711 56.1102
L102.5997 55.9673
" />
<path d="M102.5997 55.9673
L102.4568 55.8959
" />
<path d="M102.4568 55.8959
L102.2426 55.8959
" />
<path d="M102.2426 55.8959
L102.0997 55.8245
" />
<path d="M102.0997 55.8245
L102.0283 55.6816
" />
<path d="M102.0283 55.6816
L102.0283 55.6102
" />
<path d="M102.0283 55.6102
L102.0997 55.4673
" />
<path d="M102.0997 55.4673
L102.2426 55.3959
" />
<path d="M102.2426 55.3959
L102.4568 55.3959
" />
<path d="M102.4568 55.3959
L102.5997 55.4673
" />
<path d="M103.5283 56.3959
L103.3854 56.3245
" />
<path d="M103.3854 56.3245
L103.3140 56.2530
" />
<path d="M103.3140 56.2530
L103.2426 56.1102
" />
<path d="M103.2426 56.1102
L103.2426 55.6816
" />
<path d="M103.2426 55.6816
L103.3140 55.5387
" />
<path d="M103.3140 55.5387
L103.3854 55.4673
" />
<path d="M103.3854 55.4673
L103.5283 55.3959
" />
<path d="M103.5283 55.3959
L103.7426 55.3959
" />
<path d="M103.7426 55.3959
L103.8854 55.4673
" />
<path d="M103.8854 55.4673
L103.9569 55.5387
" />
<path d="M103.9569 55.5387
L104.0283 55.6816
" />
<path d="M104.0283 55.6816
L104.0283 56.1102
" />
<path d="M104.0283 56.1102
L103.9569 56.2530
" />
<path d="M103.9569 56.2530
L103.8854 56.3245
" />
<path d="M103.8854 56.3245
L103.7426 56.3959
" />
<path d="M103.7426 56.3959
L103.5283 56.3959
" />
<path d="M104.6711 56.3959
L104.6711 55.3959
" />
<path d="M104.6711 55.6816
L104.7425 55.5387
" />
<path d="M104.7425 55.5387
L104.8140 55.4673
" />
<path d="M104.8140 55.4673
L104.9568 55.3959
" />
<path d="M104.9568 55.3959
L105.0997 55.3959
" />
<path d="M105.2426 56.5387
L106.3854 56.5387
" />
<path d="M107.3855 56.3245
L107.2426 56.3959
" />
<path d="M107.2426 56.3959
L106.9569 56.3959
" />
<path d="M106.9569 56.3959
L106.8140 56.3245
" />
<path d="M106.8140 56.3245
L106.7426 56.2530
" />
<path d="M106.7426 56.2530
L106.6712 56.1102
" />
<path d="M106.6712 56.1102
L106.6712 55.6816
" />
<path d="M106.6712 55.6816
L106.7426 55.5387
" />
<path d="M106.7426 55.5387
L106.8140 55.4673
" />
<path d="M106.8140 55.4673
L106.9569 55.3959
" />
<path d="M106.9569 55.3959
L107.2426 55.3959
" />
<path d="M107.2426 55.3959
L107.3855 55.4673
" />
<path d="M108.0283 56.3959
L108.0283 55.3959
" />
<path d="M108.0283 54.8959
L107.9569 54.9673
" />
<path d="M107.9569 54.9673
L108.0283 55.0387
" />
<path d="M108.0283 55.0387
L108.0997 54.9673
" />
<path d="M108.0997 54.9673
L108.0283 54.8959
" />
<path d="M108.0283 54.8959
L108.0283 55.0387
" />
<path d="M108.7426 56.3959
L108.7426 55.3959
" />
<path d="M108.7426 55.6816
L108.8140 55.5387
" />
<path d="M108.8140 55.5387
L108.8855 55.4673
" />
<path d="M108.8855 55.4673
L109.0283 55.3959
" />
<path d="M109.0283 55.3959
L109.1712 55.3959
" />
<path d="M110.3141 56.3245
L110.1712 56.3959
" />
<path d="M110.1712 56.3959
L109.8855 56.3959
" />
<path d="M109.8855 56.3959
L109.7426 56.3245
" />
<path d="M109.7426 56.3245
L109.6712 56.2530
" />
<path d="M109.6712 56.2530
L109.5998 56.1102
" />
<path d="M109.5998 56.1102
L109.5998 55.6816
" />
<path d="M109.5998 55.6816
L109.6712 55.5387
" />
<path d="M109.6712 55.5387
L109.7426 55.4673
" />
<path d="M109.7426 55.4673
L109.8855 55.3959
" />
<path d="M109.8855 55.3959
L110.1712 55.3959
" />
<path d="M110.1712 55.3959
L110.3141 55.4673
" />
<path d="M111.5998 55.3959
L111.5998 56.3959
" />
<path d="M110.9569 55.3959
L110.9569 56.1816
" />
<path d="M110.9569 56.1816
L111.0283 56.3245
" />
<path d="M111.0283 56.3245
L111.1712 56.3959
" />
<path d="M111.1712 56.3959
L111.3855 56.3959
" />
<path d="M111.3855 56.3959
L111.5283 56.3245
" />
<path d="M111.5283 56.3245
L111.5998 56.2530
" />
<path d="M112.3140 56.3959
L112.3140 55.3959
" />
<path d="M112.3140 54.8959
L112.2426 54.9673
" />
<path d="M112.2426 54.9673
L112.3140 55.0387
" />
<path d="M112.3140 55.0387
L112.3854 54.9673
" />
<path d="M112.3854 54.9673
L112.3140 54.8959
" />
<path d="M112.3140 54.8959
L112.3140 55.0387
" />
<path d="M112.8140 55.3959
L113.3854 55.3959
" />
<path d="M113.0283 54.8959
L113.0283 56.1816
" />
<path d="M113.0283 56.1816
L113.0997 56.3245
" />
<path d="M113.0997 56.3245
L113.2426 56.3959
" />
<path d="M113.2426 56.3959
L113.3854 56.3959
" />
<path d="M113.5283 56.5387
L114.6711 56.5387
" />
<path d="M115.6712 56.3959
L115.6712 54.8959
" />
<path d="M115.6712 56.3245
L115.5283 56.3959
" />
<path d="M115.5283 56.3959
L115.2426 56.3959
" />
<path d="M115.2426 56.3959
L115.0997 56.3245
" />
<path d="M115.0997 56.3245
L115.0283 56.2530
" />
<path d="M115.0283 56.2530
L114.9569 56.1102
" />
<path d="M114.9569 56.1102
L114.9569 55.6816
" />
<path d="M114.9569 55.6816
L115.0283 55.5387
" />
<path d="M115.0283 55.5387
L115.0997 55.4673
" />
<path d="M115.0997 55.4673
L115.2426 55.3959
" />
<path d="M115.2426 55.3959
L115.5283 55.3959
" />
<path d="M115.5283 55.3959
L115.6712 55.4673
" />
<path d="M116.9568 56.3245
L116.8140 56.3959
" />
<path d="M116.8140 56.3959
L116.5283 56.3959
" />
<path d="M116.5283 56.3959
L116.3854 56.3245
" />
<path d="M116.3854 56.3245
L116.3140 56.1816
" />
<path d="M116.3140 56.1816
L116.3140 55.6102
" />
<path d="M116.3140 55.6102
L116.3854 55.4673
" />
<path d="M116.3854 55.4673
L116.5283 55.3959
" />
<path d="M116.5283 55.3959
L116.8140 55.3959
" />
<path d="M116.8140 55.3959
L116.9568 55.4673
" />
<path d="M116.9568 55.4673
L117.0283 55.6102
" />
<path d="M117.0283 55.6102
L117.0283 55.7530
" />
<path d="M117.0283 55.7530
L116.3140 55.8959
" />
<path d="M117.5997 56.3245
L117.7425 56.3959
" />
<path d="M117.7425 56.3959
L118.0282 56.3959
" />
<path d="M118.0282 56.3959
L118.1711 56.3245
" />
<path d="M118.1711 56.3245
L118.2425 56.1816
" />
<path d="M118.2425 56.1816
L118.2425 56.1102
" />
<path d="M118.2425 56.1102
L118.1711 55.9673
" />
<path d="M118.1711 55.9673
L118.0282 55.8959
" />
<path d="M118.0282 55.8959
L117.8140 55.8959
" />
<path d="M117.8140 55.8959
L117.6711 55.8245
" />
<path d="M117.6711 55.8245
L117.5997 55.6816
" />
<path d="M117.5997 55.6816
L117.5997 55.6102
" />
<path d="M117.5997 55.6102
L117.6711 55.4673
" />
<path d="M117.6711 55.4673
L117.8140 55.3959
" />
<path d="M117.8140 55.3959
L118.0282 55.3959
" />
<path d="M118.0282 55.3959
L118.1711 55.4673
" />
<path d="M118.8854 56.3959
L118.8854 55.3959
" />
<path d="M118.8854 54.8959
L118.8140 54.9673
" />
<path d="M118.8140 54.9673
L118.8854 55.0387
" />
<path d="M118.8854 55.0387
L118.9568 54.9673
" />
<path d="M118.9568 54.9673
L118.8854 54.8959
" />
<path d="M118.8854 54.8959
L118.8854 55.0387
" />
<path d="M120.2426 55.3959
L120.2426 56.6102
" />
<path d="M120.2426 56.6102
L120.1711 56.7530
" />
<path d="M120.1711 56.7530
L120.0997 56.8245
" />
<path d="M120.0997 56.8245
L119.9568 56.8959
" />
<path d="M119.9568 56.8959
L119.7426 56.8959
" />
<path d="M119.7426 56.8959
L119.5997 56.8245
" />
<path d="M120.2426 56.3245
L120.0997 56.3959
" />
<path d="M120.0997 56.3959
L119.8140 56.3959
" />
<path d="M119.8140 56.3959
L119.6711 56.3245
" />
<path d="M119.6711 56.3245
L119.5997 56.2530
" />
<path d="M119.5997 56.2530
L119.5283 56.1102
" />
<path d="M119.5283 56.1102
L119.5283 55.6816
" />
<path d="M119.5283 55.6816
L119.5997 55.5387
" />
<path d="M119.5997 55.5387
L119.6711 55.4673
" />
<path d="M119.6711 55.4673
L119.8140 55.3959
" />
<path d="M119.8140 55.3959
L120.0997 55.3959
" />
<path d="M120.0997 55.3959
L120.2426 55.4673
" />
<path d="M120.9568 55.3959
L120.9568 56.3959
" />
<path d="M120.9568 55.5387
L121.0282 55.4673
" />
<path d="M121.0282 55.4673
L121.1711 55.3959
" />
<path d="M121.1711 55.3959
L121.3854 55.3959
" />
<path d="M121.3854 55.3959
L121.5282 55.4673
" />
<path d="M121.5282 55.4673
L121.5997 55.6102
" />
<path d="M121.5997 55.6102
L121.5997 56.3959
" />
<path d="M122.3139 56.2530
L122.3853 56.3245
" />
<path d="M122.3853 56.3245
L122.3139 56.3959
" />
<path d="M122.3139 56.3959
L122.2425 56.3245
" />
<path d="M122.2425 56.3245
L122.3139 56.2530
" />
<path d="M122.3139 56.2530
L122.3139 56.3959
" />
<path d="M123.0282 56.3959
L123.0282 54.8959
" />
<path d="M123.1711 55.8245
L123.5996 56.3959
" />
<path d="M123.5996 55.3959
L123.0282 55.9673
" />
<path d="M124.2425 56.3959
L124.2425 55.3959
" />
<path d="M124.2425 54.8959
L124.1711 54.9673
" />
<path d="M124.1711 54.9673
L124.2425 55.0387
" />
<path d="M124.2425 55.0387
L124.3139 54.9673
" />
<path d="M124.3139 54.9673
L124.2425 54.8959
" />
<path d="M124.2425 54.8959
L124.2425 55.0387
" />
<path d="M125.5997 56.3245
L125.4568 56.3959
" />
<path d="M125.4568 56.3959
L125.1711 56.3959
" />
<path d="M125.1711 56.3959
L125.0282 56.3245
" />
<path d="M125.0282 56.3245
L124.9568 56.2530
" />
<path d="M124.9568 56.2530
L124.8854 56.1102
" />
<path d="M124.8854 56.1102
L124.8854 55.6816
" />
<path d="M124.8854 55.6816
L124.9568 55.5387
" />
<path d="M124.9568 55.5387
L125.0282 55.4673
" />
<path d="M125.0282 55.4673
L125.1711 55.3959
" />
<path d="M125.1711 55.3959
L125.4568 55.3959
" />
<path d="M125.4568 55.3959
L125.5997 55.4673
" />
<path d="M126.8854 56.3959
L126.8854 55.6102
" />
<path d="M126.8854 55.6102
L126.8139 55.4673
" />
<path d="M126.8139 55.4673
L126.6711 55.3959
" />
<path d="M126.6711 55.3959
L126.3854 55.3959
" />
<path d="M126.3854 55.3959
L126.2425 55.4673
" />
<path d="M126.8854 56.3245
L126.7425 56.3959
" />
<path d="M126.7425 56.3959
L126.3854 56.3959
" />
<path d="M126.3854 56.3959
L126.2425 56.3245
" />
<path d="M126.2425 56.3245
L126.1711 56.1816
" />
<path d="M126.1711 56.1816
L126.1711 56.0387
" />
<path d="M126.1711 56.0387
L126.2425 55.8959
" />
<path d="M126.2425 55.8959
L126.3854 55.8245
" />
<path d="M126.3854 55.8245
L126.7425 55.8245
" />
<path d="M126.7425 55.8245
L126.8854 55.7530
" />
<path d="M128.2425 56.3959
L128.2425 54.8959
" />
<path d="M128.2425 56.3245
L128.0996 56.3959
" />
<path d="M128.0996 56.3959
L127.8139 56.3959
" />
<path d="M127.8139 56.3959
L127.6710 56.3245
" />
<path d="M127.6710 56.3245
L127.5996 56.2530
" />
<path d="M127.5996 56.2530
L127.5282 56.1102
" />
<path d="M127.5282 56.1102
L127.5282 55.6816
" />
<path d="M127.5282 55.6816
L127.5996 55.5387
" />
<path d="M127.5996 55.5387
L127.6710 55.4673
" />
<path d="M127.6710 55.4673
L127.8139 55.3959
" />
<path d="M127.8139 55.3959
L128.0996 55.3959
" />
<path d="M128.0996 55.3959
L128.2425 55.4673
" />
<path d="M128.5996 56.5387
L129.7424 56.5387
" />
<path d="M130.0282 56.3245
L130.1710 56.3959
" />
<path d="M130.1710 56.3959
L130.4567 56.3959
" />
<path d="M130.4567 56.3959
L130.5996 56.3245
" />
<path d="M130.5996 56.3245
L130.6710 56.1816
" />
<path d="M130.6710 56.1816
L130.6710 56.1102
" />
<path d="M130.6710 56.1102
L130.5996 55.9673
" />
<path d="M130.5996 55.9673
L130.4567 55.8959
" />
<path d="M130.4567 55.8959
L130.2425 55.8959
" />
<path d="M130.2425 55.8959
L130.0996 55.8245
" />
<path d="M130.0996 55.8245
L130.0282 55.6816
" />
<path d="M130.0282 55.6816
L130.0282 55.6102
" />
<path d="M130.0282 55.6102
L130.0996 55.4673
" />
<path d="M130.0996 55.4673
L130.2425 55.3959
" />
<path d="M130.2425 55.3959
L130.4567 55.3959
" />
<path d="M130.4567 55.3959
L130.5996 55.4673
" />
<path d="M131.9568 56.3245
L131.8139 56.3959
" />
<path d="M131.8139 56.3959
L131.5282 56.3959
" />
<path d="M131.5282 56.3959
L131.3853 56.3245
" />
<path d="M131.3853 56.3245
L131.3139 56.2530
" />
<path d="M131.3139 56.2530
L131.2425 56.1102
" />
<path d="M131.2425 56.1102
L131.2425 55.6816
" />
<path d="M131.2425 55.6816
L131.3139 55.5387
" />
<path d="M131.3139 55.5387
L131.3853 55.4673
" />
<path d="M131.3853 55.4673
L131.5282 55.3959
" />
<path d="M131.5282 55.3959
L131.8139 55.3959
" />
<path d="M131.8139 55.3959
L131.9568 55.4673
" />
<path d="M132.5996 56.3959
L132.5996 54.8959
" />
<path d="M133.2425 56.3959
L133.2425 55.6102
" />
<path d="M133.2425 55.6102
L133.1710 55.4673
" />
<path d="M133.1710 55.4673
L133.0282 55.3959
" />
<path d="M133.0282 55.3959
L132.8139 55.3959
" />
<path d="M132.8139 55.3959
L132.6710 55.4673
" />
<path d="M132.6710 55.4673
L132.5996 55.5387
" />
</g><path d="M79.9996 51.5100
L187.9996 51.5100
" />
<text x="80.9996" y="53.7600"
textLength="9.8000" font-size="2.0000" lengthAdjust="spacingAndGlyphs"
text-anchor="start" opacity="0">Sheet: /</text>
<g class="stroked-text"><desc>Sheet: /</desc>
<path d="M81.3855 53.6245
L81.5998 53.6959
" />
<path d="M81.5998 53.6959
L81.9569 53.6959
" />
<path d="M81.9569 53.6959
L82.0998 53.6245
" />
<path d="M82.0998 53.6245
L82.1712 53.5530
" />
<path d="M82.1712 53.5530
L82.2426 53.4102
" />
<path d="M82.2426 53.4102
L82.2426 53.2673
" />
<path d="M82.2426 53.2673
L82.1712 53.1245
" />
<path d="M82.1712 53.1245
L82.0998 53.0530
" />
<path d="M82.0998 53.0530
L81.9569 52.9816
" />
<path d="M81.9569 52.9816
L81.6712 52.9102
" />
<path d="M81.6712 52.9102
L81.5283 52.8387
" />
<path d="M81.5283 52.8387
L81.4569 52.7673
" />
<path d="M81.4569 52.7673
L81.3855 52.6245
" />
<path d="M81.3855 52.6245
L81.3855 52.4816
" />
<path d="M81.3855 52.4816
L81.4569 52.3387
" />
<path d="M81.4569 52.3387
L81.5283 52.2673
" />
<path d="M81.5283 52.2673
L81.6712 52.1959
" />
<path d="M81.6712 52.1959
L82.0283 52.1959
" />
<path d="M82.0283 52.1959
L82.2426 52.2673
" />
<path d="M82.8855 53.6959
L82.8855 52.1959
" />
<path d="M83.5284 53.6959
L83.5284 52.9102
" />
<path d="M83.5284 52.9102
L83.4569 52.7673
" />
<path d="M83.4569 52.7673
L83.3141 52.6959
" />
<path d="M83.3141 52.6959
L83.0998 52.6959
" />
<path d="M83.0998 52.6959
L82.9569 52.7673
" />
<path d="M82.9569 52.7673
L82.8855 52.8387
" />
<path d="M84.8140 53.6245
L84.6712 53.6959
" />
<path d="M84.6712 53.6959
L84.3855 53.6959
" />
<path d="M84.3855 53.6959
L84.2426 53.6245
" />
<path d="M84.2426 53.6245
L84.1712 53.4816
" />
<path d="M84.1712 53.4816
L84.1712 52.9102
" />
<path d="M84.1712 52.9102
L84.2426 52.7673
" />
<path d="M84.2426 52.7673
L84.3855 52.6959
" />
<path d="M84.3855 52.6959
L84.6712 52.6959
" />
<path d="M84.6712 52.6959
L84.8140 52.7673
" />
<path d="M84.8140 52.7673
L84.8855 52.9102
" />
<path d="M84.8855 52.9102
L84.8855 53.0530
" />
<path d="M84.8855 53.0530
L84.1712 53.1959
" />
<path d="M86.0997 53.6245
L85.9569 53.6959
" />
<path d="M85.9569 53.6959
L85.6712 53.6959
" />
<path d="M85.6712 53.6959
L85.5283 53.6245
" />
<path d="M85.5283 53.6245
L85.4569 53.4816
" />
<path d="M85.4569 53.4816
L85.4569 52.9102
" />
<path d="M85.4569 52.9102
L85.5283 52.7673
" />
<path d="M85.5283 52.7673
L85.6712 52.6959
" />
<path d="M85.6712 52.6959
L85.9569 52.6959
" />
<path d="M85.9569 52.6959
L86.0997 52.7673
" />
<path d="M86.0997 52.7673
L86.1712 52.9102
" />
<path d="M86.1712 52.9102
L86.1712 53.0530
" />
<path d="M86.1712 53.0530
L85.4569 53.1959
" />
<path d="M86.5997 52.6959
L87.1711 52.6959
" />
<path d="M86.8140 52.1959
L86.8140 53.4816
" />
<path d="M86.8140 53.4816
L86.8854 53.6245
" />
<path d="M86.8854 53.6245
L87.0283 53.6959
" />
<path d="M87.0283 53.6959
L87.1711 53.6959
" />
<path d="M87.6711 53.5530
L87.7425 53.6245
" />
<path d="M87.7425 53.6245
L87.6711 53.6959
" />
<path d="M87.6711 53.6959
L87.5997 53.6245
" />
<path d="M87.5997 53.6245
L87.6711 53.5530
" />
<path d="M87.6711 53.5530
L87.6711 53.6959
" />
<path d="M87.6711 52.7673
L87.7425 52.8387
" />
<path d="M87.7425 52.8387
L87.6711 52.9102
" />
<path d="M87.6711 52.9102
L87.5997 52.8387
" />
<path d="M87.5997 52.8387
L87.6711 52.7673
" />
<path d="M87.6711 52.7673
L87.6711 52.9102
" />
<path d="M90.5997 52.1245
L89.3140 54.0530
" />
</g></g>
<g style="fill:#840000; fill-opacity:0.0; 
stroke:#840000; stroke-width:0.3000; stroke-opacity:1; 
stroke-linecap:round; stroke-linejoin:round;">
<text x="80.9996" y="50.7600"
textLength="12.5999" font-size="2.0000" lengthAdjust="spacingAndGlyphs"
text-anchor="start" opacity="0">Mokro Hub</text>
<g class="stroked-text"><desc>Mokro Hub</desc>
<path d="M81.5540 50.6883
L81.5540 49.1883
" />
<path d="M81.5540 49.1883
L82.0540 50.2597
" />
<path d="M82.0540 50.2597
L82.5540 49.1883
" />
<path d="M82.5540 49.1883
L82.5540 50.6883
" />
<path d="M83.4826 50.6883
L83.3397 50.6169
" />
<path d="M83.3397 50.6169
L83.2683 50.5454
" />
<path d="M83.2683 50.5454
L83.1969 50.4026
" />
<path d="M83.1969 50.4026
L83.1969 49.9740
" />
<path d="M83.1969 49.9740
L83.2683 49.8311
" />
<path d="M83.2683 49.8311
L83.3397 49.7597
" />
<path d="M83.3397 49.7597
L83.4826 49.6883
" />
<path d="M83.4826 49.6883
L83.6969 49.6883
" />
<path d="M83.6969 49.6883
L83.8397 49.7597
" />
<path d="M83.8397 49.7597
L83.9112 49.8311
" />
<path d="M83.9112 49.8311
L83.9826 49.9740
" />
<path d="M83.9826 49.9740
L83.9826 50.4026
" />
<path d="M83.9826 50.4026
L83.9112 50.5454
" />
<path d="M83.9112 50.5454
L83.8397 50.6169
" />
<path d="M83.8397 50.6169
L83.6969 50.6883
" />
<path d="M83.6969 50.6883
L83.4826 50.6883
" />
<path d="M84.6254 50.6883
L84.6254 49.1883
" />
<path d="M84.7683 50.1169
L85.1968 50.6883
" />
<path d="M85.1968 49.6883
L84.6254 50.2597
" />
<path d="M85.8397 50.6883
L85.8397 49.6883
" />
<path d="M85.8397 49.9740
L85.9111 49.8311
" />
<path d="M85.9111 49.8311
L85.9826 49.7597
" />
<path d="M85.9826 49.7597
L86.1254 49.6883
" />
<path d="M86.1254 49.6883
L86.2683 49.6883
" />
<path d="M86.9826 50.6883
L86.8397 50.6169
" />
<path d="M86.8397 50.6169
L86.7683 50.5454
" />
<path d="M86.7683 50.5454
L86.6969 50.4026
" />
<path d="M86.6969 50.4026
L86.6969 49.9740
" />
<path d="M86.6969 49.9740
L86.7683 49.8311
" />
<path d="M86.7683 49.8311
L86.8397 49.7597
" />
<path d="M86.8397 49.7597
L86.9826 49.6883
" />
<path d="M86.9826 49.6883
L87.1969 49.6883
" />
<path d="M87.1969 49.6883
L87.3397 49.7597
" />
<path d="M87.3397 49.7597
L87.4112 49.8311
" />
<path d="M87.4112 49.8311
L87.4826 49.9740
" />
<path d="M87.4826 49.9740
L87.4826 50.4026
" />
<path d="M87.4826 50.4026
L87.4112 50.5454
" />
<path d="M87.4112 50.5454
L87.3397 50.6169
" />
<path d="M87.3397 50.6169
L87.1969 50.6883
" />
<path d="M87.1969 50.6883
L86.9826 50.6883
" />
<path d="M89.2683 50.6883
L89.2683 49.1883
" />
<path d="M89.2683 49.9026
L90.1254 49.9026
" />
<path d="M90.1254 50.6883
L90.1254 49.1883
" />
<path d="M91.4826 49.6883
L91.4826 50.6883
" />
<path d="M90.8397 49.6883
L90.8397 50.4740
" />
<path d="M90.8397 50.4740
L90.9111 50.6169
" />
<path d="M90.9111 50.6169
L91.0540 50.6883
" />
<path d="M91.0540 50.6883
L91.2683 50.6883
" />
<path d="M91.2683 50.6883
L91.4111 50.6169
" />
<path d="M91.4111 50.6169
L91.4826 50.5454
" />
<path d="M92.1968 50.6883
L92.1968 49.1883
" />
<path d="M92.1968 49.7597
L92.3397 49.6883
" />
<path d="M92.3397 49.6883
L92.6254 49.6883
" />
<path d="M92.6254 49.6883
L92.7682 49.7597
" />
<path d="M92.7682 49.7597
L92.8397 49.8311
" />
<path d="M92.8397 49.8311
L92.9111 49.9740
" />
<path d="M92.9111 49.9740
L92.9111 50.4026
" />
<path d="M92.9111 50.4026
L92.8397 50.5454
" />
<path d="M92.8397 50.5454
L92.7682 50.6169
" />
<path d="M92.7682 50.6169
L92.6254 50.6883
" />
<path d="M92.6254 50.6883
L92.3397 50.6883
" />
<path d="M92.3397 50.6883
L92.1968 50.6169
" />
</g></g>
<g style="fill:#840000; fill-opacity:0.0; 
stroke:#840000; stroke-width:0.1524; stroke-opacity:1; 
stroke-linecap:round; stroke-linejoin:round;">
<text x="80.9996" y="47.7600"
textLength="28.7999" font-size="2.0000" lengthAdjust="spacingAndGlyphs"
text-anchor="start" opacity="0">Created by Jan Hendrych</text>
<g class="stroked-text"><desc>Created by Jan Hendrych</desc>
<path d="M82.3140 47.5530
L82.2426 47.6245
" />
<path d="M82.2426 47.6245
L82.0283 47.6959
" />
<path d="M82.0283 47.6959
L81.8855 47.6959
" />
<path d="M81.8855 47.6959
L81.6712 47.6245
" />
<path d="M81.6712 47.6245
L81.5283 47.4816
" />
<path d="M81.5283 47.4816
L81.4569 47.3387
" />
<path d="M81.4569 47.3387
L81.3855 47.0530
" />
<path d="M81.3855 47.0530
L81.3855 46.8387
" />
<path d="M81.3855 46.8387
L81.4569 46.5530
" />
<path d="M81.4569 46.5530
L81.5283 46.4102
" />
<path d="M81.5283 46.4102
L81.6712 46.2673
" />
<path d="M81.6712 46.2673
L81.8855 46.1959
" />
<path d="M81.8855 46.1959
L82.0283 46.1959
" />
<path d="M82.0283 46.1959
L82.2426 46.2673
" />
<path d="M82.2426 46.2673
L82.3140 46.3387
" />
<path d="M82.9569 47.6959
L82.9569 46.6959
" />
<path d="M82.9569 46.9816
L83.0283 46.8387
" />
<path d="M83.0283 46.8387
L83.0998 46.7673
" />
<path d="M83.0998 46.7673
L83.2426 46.6959
" />
<path d="M83.2426 46.6959
L83.3855 46.6959
" />
<path d="M84.4569 47.6245
L84.3141 47.6959
" />
<path d="M84.3141 47.6959
L84.0284 47.6959
" />
<path d="M84.0284 47.6959
L83.8855 47.6245
" />
<path d="M83.8855 47.6245
L83.8141 47.4816
" />
<path d="M83.8141 47.4816
L83.8141 46.9102
" />
<path d="M83.8141 46.9102
L83.8855 46.7673
" />
<path d="M83.8855 46.7673
L84.0284 46.6959
" />
<path d="M84.0284 46.6959
L84.3141 46.6959
" />
<path d="M84.3141 46.6959
L84.4569 46.7673
" />
<path d="M84.4569 46.7673
L84.5284 46.9102
" />
<path d="M84.5284 46.9102
L84.5284 47.0530
" />
<path d="M84.5284 47.0530
L83.8141 47.1959
" />
<path d="M85.8141 47.6959
L85.8141 46.9102
" />
<path d="M85.8141 46.9102
L85.7426 46.7673
" />
<path d="M85.7426 46.7673
L85.5998 46.6959
" />
<path d="M85.5998 46.6959
L85.3141 46.6959
" />
<path d="M85.3141 46.6959
L85.1712 46.7673
" />
<path d="M85.8141 47.6245
L85.6712 47.6959
" />
<path d="M85.6712 47.6959
L85.3141 47.6959
" />
<path d="M85.3141 47.6959
L85.1712 47.6245
" />
<path d="M85.1712 47.6245
L85.0998 47.4816
" />
<path d="M85.0998 47.4816
L85.0998 47.3387
" />
<path d="M85.0998 47.3387
L85.1712 47.1959
" />
<path d="M85.1712 47.1959
L85.3141 47.1245
" />
<path d="M85.3141 47.1245
L85.6712 47.1245
" />
<path d="M85.6712 47.1245
L85.8141 47.0530
" />
<path d="M86.3140 46.6959
L86.8854 46.6959
" />
<path d="M86.5283 46.1959
L86.5283 47.4816
" />
<path d="M86.5283 47.4816
L86.5997 47.6245
" />
<path d="M86.5997 47.6245
L86.7426 47.6959
" />
<path d="M86.7426 47.6959
L86.8854 47.6959
" />
<path d="M87.9568 47.6245
L87.8140 47.6959
" />
<path d="M87.8140 47.6959
L87.5283 47.6959
" />
<path d="M87.5283 47.6959
L87.3854 47.6245
" />
<path d="M87.3854 47.6245
L87.3140 47.4816
" />
<path d="M87.3140 47.4816
L87.3140 46.9102
" />
<path d="M87.3140 46.9102
L87.3854 46.7673
" />
<path d="M87.3854 46.7673
L87.5283 46.6959
" />
<path d="M87.5283 46.6959
L87.8140 46.6959
" />
<path d="M87.8140 46.6959
L87.9568 46.7673
" />
<path d="M87.9568 46.7673
L88.0283 46.9102
" />
<path d="M88.0283 46.9102
L88.0283 47.0530
" />
<path d="M88.0283 47.0530
L87.3140 47.1959
" />
<path d="M89.3140 47.6959
L89.3140 46.1959
" />
<path d="M89.3140 47.6245
L89.1711 47.6959
" />
<path d="M89.1711 47.6959
L88.8854 47.6959
" />
<path d="M88.8854 47.6959
L88.7425 47.6245
" />
<path d="M88.7425 47.6245
L88.6711 47.5530
" />
<path d="M88.6711 47.5530
L88.5997 47.4102
" />
<path d="M88.5997 47.4102
L88.5997 46.9816
" />
<path d="M88.5997 46.9816
L88.6711 46.8387
" />
<path d="M88.6711 46.8387
L88.7425 46.7673
" />
<path d="M88.7425 46.7673
L88.8854 46.6959
" />
<path d="M88.8854 46.6959
L89.1711 46.6959
" />
<path d="M89.1711 46.6959
L89.3140 46.7673
" />
<path d="M91.1711 47.6959
L91.1711 46.1959
" />
<path d="M91.1711 46.7673
L91.3140 46.6959
" />
<path d="M91.3140 46.6959
L91.5997 46.6959
" />
<path d="M91.5997 46.6959
L91.7425 46.7673
" />
<path d="M91.7425 46.7673
L91.8140 46.8387
" />
<path d="M91.8140 46.8387
L91.8854 46.9816
" />
<path d="M91.8854 46.9816
L91.8854 47.4102
" />
<path d="M91.8854 47.4102
L91.8140 47.5530
" />
<path d="M91.8140 47.5530
L91.7425 47.6245
" />
<path d="M91.7425 47.6245
L91.5997 47.6959
" />
<path d="M91.5997 47.6959
L91.3140 47.6959
" />
<path d="M91.3140 47.6959
L91.1711 47.6245
" />
<path d="M92.3853 46.6959
L92.7425 47.6959
" />
<path d="M93.0996 46.6959
L92.7425 47.6959
" />
<path d="M92.7425 47.6959
L92.5996 48.0530
" />
<path d="M92.5996 48.0530
L92.5282 48.1245
" />
<path d="M92.5282 48.1245
L92.3853 48.1959
" />
<path d="M95.2426 46.1959
L95.2426 47.2673
" />
<path d="M95.2426 47.2673
L95.1711 47.4816
" />
<path d="M95.1711 47.4816
L95.0283 47.6245
" />
<path d="M95.0283 47.6245
L94.8140 47.6959
" />
<path d="M94.8140 47.6959
L94.6711 47.6959
" />
<path d="M96.5998 47.6959
L96.5998 46.9102
" />
<path d="M96.5998 46.9102
L96.5283 46.7673
" />
<path d="M96.5283 46.7673
L96.3855 46.6959
" />
<path d="M96.3855 46.6959
L96.0998 46.6959
" />
<path d="M96.0998 46.6959
L95.9569 46.7673
" />
<path d="M96.5998 47.6245
L96.4569 47.6959
" />
<path d="M96.4569 47.6959
L96.0998 47.6959
" />
<path d="M96.0998 47.6959
L95.9569 47.6245
" />
<path d="M95.9569 47.6245
L95.8855 47.4816
" />
<path d="M95.8855 47.4816
L95.8855 47.3387
" />
<path d="M95.8855 47.3387
L95.9569 47.1959
" />
<path d="M95.9569 47.1959
L96.0998 47.1245
" />
<path d="M96.0998 47.1245
L96.4569 47.1245
" />
<path d="M96.4569 47.1245
L96.5998 47.0530
" />
<path d="M97.3140 46.6959
L97.3140 47.6959
" />
<path d="M97.3140 46.8387
L97.3854 46.7673
" />
<path d="M97.3854 46.7673
L97.5283 46.6959
" />
<path d="M97.5283 46.6959
L97.7426 46.6959
" />
<path d="M97.7426 46.6959
L97.8854 46.7673
" />
<path d="M97.8854 46.7673
L97.9569 46.9102
" />
<path d="M97.9569 46.9102
L97.9569 47.6959
" />
<path d="M99.8140 47.6959
L99.8140 46.1959
" />
<path d="M99.8140 46.9102
L100.6711 46.9102
" />
<path d="M100.6711 47.6959
L100.6711 46.1959
" />
<path d="M101.9568 47.6245
L101.8140 47.6959
" />
<path d="M101.8140 47.6959
L101.5283 47.6959
" />
<path d="M101.5283 47.6959
L101.3854 47.6245
" />
<path d="M101.3854 47.6245
L101.3140 47.4816
" />
<path d="M101.3140 47.4816
L101.3140 46.9102
" />
<path d="M101.3140 46.9102
L101.3854 46.7673
" />
<path d="M101.3854 46.7673
L101.5283 46.6959
" />
<path d="M101.5283 46.6959
L101.8140 46.6959
" />
<path d="M101.8140 46.6959
L101.9568 46.7673
" />
<path d="M101.9568 46.7673
L102.0283 46.9102
" />
<path d="M102.0283 46.9102
L102.0283 47.0530
" />
<path d="M102.0283 47.0530
L101.3140 47.1959
" />
<path d="M102.6711 46.6959
L102.6711 47.6959
" />
<path d="M102.6711 46.8387
L102.7425 46.7673
" />
<path d="M102.7425 46.7673
L102.8854 46.6959
" />
<path d="M102.8854 46.6959
L103.0997 46.6959
" />
<path d="M103.0997 46.6959
L103.2425 46.7673
" />
<path d="M103.2425 46.7673
L103.3140 46.9102
" />
<path d="M103.3140 46.9102
L103.3140 47.6959
" />
<path d="M104.6711 47.6959
L104.6711 46.1959
" />
<path d="M104.6711 47.6245
L104.5282 47.6959
" />
<path d="M104.5282 47.6959
L104.2425 47.6959
" />
<path d="M104.2425 47.6959
L104.0996 47.6245
" />
<path d="M104.0996 47.6245
L104.0282 47.5530
" />
<path d="M104.0282 47.5530
L103.9568 47.4102
" />
<path d="M103.9568 47.4102
L103.9568 46.9816
" />
<path d="M103.9568 46.9816
L104.0282 46.8387
" />
<path d="M104.0282 46.8387
L104.0996 46.7673
" />
<path d="M104.0996 46.7673
L104.2425 46.6959
" />
<path d="M104.2425 46.6959
L104.5282 46.6959
" />
<path d="M104.5282 46.6959
L104.6711 46.7673
" />
<path d="M105.3853 47.6959
L105.3853 46.6959
" />
<path d="M105.3853 46.9816
L105.4567 46.8387
" />
<path d="M105.4567 46.8387
L105.5282 46.7673
" />
<path d="M105.5282 46.7673
L105.6710 46.6959
" />
<path d="M105.6710 46.6959
L105.8139 46.6959
" />
<path d="M106.1710 46.6959
L106.5282 47.6959
" />
<path d="M106.8853 46.6959
L106.5282 47.6959
" />
<path d="M106.5282 47.6959
L106.3853 48.0530
" />
<path d="M106.3853 48.0530
L106.3139 48.1245
" />
<path d="M106.3139 48.1245
L106.1710 48.1959
" />
<path d="M108.0997 47.6245
L107.9568 47.6959
" />
<path d="M107.9568 47.6959
L107.6711 47.6959
" />
<path d="M107.6711 47.6959
L107.5282 47.6245
" />
<path d="M107.5282 47.6245
L107.4568 47.5530
" />
<path d="M107.4568 47.5530
L107.3854 47.4102
" />
<path d="M107.3854 47.4102
L107.3854 46.9816
" />
<path d="M107.3854 46.9816
L107.4568 46.8387
" />
<path d="M107.4568 46.8387
L107.5282 46.7673
" />
<path d="M107.5282 46.7673
L107.6711 46.6959
" />
<path d="M107.6711 46.6959
L107.9568 46.6959
" />
<path d="M107.9568 46.6959
L108.0997 46.7673
" />
<path d="M108.7425 47.6959
L108.7425 46.1959
" />
<path d="M109.3854 47.6959
L109.3854 46.9102
" />
<path d="M109.3854 46.9102
L109.3139 46.7673
" />
<path d="M109.3139 46.7673
L109.1711 46.6959
" />
<path d="M109.1711 46.6959
L108.9568 46.6959
" />
<path d="M108.9568 46.6959
L108.8139 46.7673
" />
<path d="M108.8139 46.7673
L108.7425 46.8387
" />
</g><text x="80.9996" y="44.7600"
textLength="0.4572" font-size="2.0000" lengthAdjust="spacingAndGlyphs"
text-anchor="start" opacity="0"></text>
<g class="stroked-text"><desc></desc>
</g><text x="80.9996" y="41.7600"
textLength="0.4572" font-size="2.0000" lengthAdjust="spacingAndGlyphs"
text-anchor="start" opacity="0"></text>
<g class="stroked-text"><desc></desc>
</g><text x="80.9996" y="38.7600"
textLength="0.4572" font-size="2.0000" lengthAdjust="spacingAndGlyphs"
text-anchor="start" opacity="0"></text>
<g class="stroked-text"><desc></desc>
</g><path d="M99.9996 61.5100
L99.9996 64.5100
" />
<path d="M163.9996 61.5100
L163.9996 68.0100
" />
</g>
<g style="fill:#840000; fill-opacity:0.0; 
stroke:#840000; stroke-width:0.1588; stroke-opacity:1; 
stroke-linecap:round; stroke-linejoin:round;">
</g>
<g style="fill:#840000; fill-opacity:0.0; 
stroke:#840000; stroke-width:0.1524; stroke-opacity:1; 
stroke-linecap:round; stroke-linejoin:round;">
</g>
<g style="fill:#840000; fill-opacity:0.0; 
stroke:#840000; stroke-width:0.1588; stroke-opacity:1; 
stroke-linecap:round; stroke-linejoin:round;">
</g>
<g style="fill:#840000; fill-opacity:0.0; 
stroke:#840000; stroke-width:0.3048; stroke-opacity:1; 
stroke-linecap:round; stroke-linejoin:round;">
</g>
<g style="fill:#840000; fill-opacity:0.0; 
stroke:#840000; stroke-width:0.1524; stroke-opacity:1; 
stroke-linecap:round; stroke-linejoin:round;">
<g >
<path style="fill:#840000; fill-opacity:0.0; 
stroke:#840000; stroke-width:0.1524; stroke-opacity:1; 
stroke-linecap:round; stroke-linejoin:round;fill:none"
d="M 45.7200,45.7200
45.7200,50.8000
46.9900,52.0700
46.9900,48.2600
48.2600,48.2600
48.2600,52.0700
49.5300,50.8000
49.5300,45.7200
Z" /> 
<path d="M46.9900 45.7200
L46.9900 43.1800
" />
</g>
<g style="fill:#006464; fill-opacity:0.0; 
stroke:#006464; stroke-width:0.1524; stroke-opacity:1; 
stroke-linecap:round; stroke-linejoin:round;">
<g transform="rotate(-90.000000 46.9900 46.2280)">
<text x="46.9900" y="46.8630"
textLength="1.7756" font-size="1.6933" lengthAdjust="spacingAndGlyphs"
text-anchor="end" opacity="0">+</text>
</g>
<g class="stroked-text"><desc>+</desc>
<path d="M47.0857 47.5982
L47.0857 46.6306
" />
<path d="M47.5695 47.1144
L46.6019 47.1144
" />
</g></g>
<g style="fill:#840000; fill-opacity:0.0; 
stroke:#840000; stroke-width:0.1524; stroke-opacity:1; 
stroke-linecap:round; stroke-linejoin:round;">
<path d="M48.2600 45.7200
L48.2600 43.1800
" />
</g>
<g style="fill:#006464; fill-opacity:0.0; 
stroke:#006464; stroke-width:0.1524; stroke-opacity:1; 
stroke-linecap:round; stroke-linejoin:round;">
<g transform="rotate(-90.000000 48.2600 46.2280)">
<text x="48.2600" y="46.8630"
textLength="1.7756" font-size="1.6933" lengthAdjust="spacingAndGlyphs"
text-anchor="end" opacity="0">-</text>
</g>
<g class="stroked-text"><desc>-</desc>
<path d="M48.3557 47.5982
L48.3557 46.6306
" />
</g><text x="53.2394" y="49.5300"
textLength="4.8597" font-size="1.6933" lengthAdjust="spacingAndGlyphs"
text-anchor="middle" opacity="0">Sond</text>
<g class="stroked-text"><desc>Sond</desc>
<path d="M51.1531 49.4141
L51.3345 49.4745
" />
<path d="M51.3345 49.4745
L51.6369 49.4745
" />
<path d="M51.6369 49.4745
L51.7578 49.4141
" />
<path d="M51.7578 49.4141
L51.8183 49.3536
" />
<path d="M51.8183 49.3536
L51.8788 49.2326
" />
<path d="M51.8788 49.2326
L51.8788 49.1117
" />
<path d="M51.8788 49.1117
L51.8183 48.9907
" />
<path d="M51.8183 48.9907
L51.7578 48.9302
" />
<path d="M51.7578 48.9302
L51.6369 48.8698
" />
<path d="M51.6369 48.8698
L51.3950 48.8093
" />
<path d="M51.3950 48.8093
L51.2740 48.7488
" />
<path d="M51.2740 48.7488
L51.2135 48.6883
" />
<path d="M51.2135 48.6883
L51.1531 48.5674
" />
<path d="M51.1531 48.5674
L51.1531 48.4464
" />
<path d="M51.1531 48.4464
L51.2135 48.3255
" />
<path d="M51.2135 48.3255
L51.2740 48.2650
" />
<path d="M51.2740 48.2650
L51.3950 48.2045
" />
<path d="M51.3950 48.2045
L51.6973 48.2045
" />
<path d="M51.6973 48.2045
L51.8788 48.2650
" />
<path d="M52.6045 49.4745
L52.4835 49.4141
" />
<path d="M52.4835 49.4141
L52.4230 49.3536
" />
<path d="M52.4230 49.3536
L52.3626 49.2326
" />
<path d="M52.3626 49.2326
L52.3626 48.8698
" />
<path d="M52.3626 48.8698
L52.4230 48.7488
" />
<path d="M52.4230 48.7488
L52.4835 48.6883
" />
<path d="M52.4835 48.6883
L52.6045 48.6279
" />
<path d="M52.6045 48.6279
L52.7859 48.6279
" />
<path d="M52.7859 48.6279
L52.9068 48.6883
" />
<path d="M52.9068 48.6883
L52.9673 48.7488
" />
<path d="M52.9673 48.7488
L53.0278 48.8698
" />
<path d="M53.0278 48.8698
L53.0278 49.2326
" />
<path d="M53.0278 49.2326
L52.9673 49.3536
" />
<path d="M52.9673 49.3536
L52.9068 49.4141
" />
<path d="M52.9068 49.4141
L52.7859 49.4745
" />
<path d="M52.7859 49.4745
L52.6045 49.4745
" />
<path d="M53.5720 48.6279
L53.5720 49.4745
" />
<path d="M53.5720 48.7488
L53.6325 48.6883
" />
<path d="M53.6325 48.6883
L53.7535 48.6279
" />
<path d="M53.7535 48.6279
L53.9349 48.6279
" />
<path d="M53.9349 48.6279
L54.0558 48.6883
" />
<path d="M54.0558 48.6883
L54.1163 48.8093
" />
<path d="M54.1163 48.8093
L54.1163 49.4745
" />
<path d="M55.2653 49.4745
L55.2653 48.2045
" />
<path d="M55.2653 49.4141
L55.1444 49.4745
" />
<path d="M55.1444 49.4745
L54.9025 49.4745
" />
<path d="M54.9025 49.4745
L54.7815 49.4141
" />
<path d="M54.7815 49.4141
L54.7210 49.3536
" />
<path d="M54.7210 49.3536
L54.6606 49.2326
" />
<path d="M54.6606 49.2326
L54.6606 48.8698
" />
<path d="M54.6606 48.8698
L54.7210 48.7488
" />
<path d="M54.7210 48.7488
L54.7815 48.6883
" />
<path d="M54.7815 48.6883
L54.9025 48.6279
" />
<path d="M54.9025 48.6279
L55.1444 48.6279
" />
<path d="M55.1444 48.6279
L55.2653 48.6883
" />
</g></g>
</g>
<g style="fill:#006464; fill-opacity:0.0; 
stroke:#006464; stroke-width:0.1588; stroke-opacity:1; 
stroke-linecap:round; stroke-linejoin:round;">
</g>
<g style="fill:#006464; fill-opacity:0.0; 
stroke:#006464; stroke-width:0.1524; stroke-opacity:1; 
stroke-linecap:round; stroke-linejoin:round;">
</g>
<g style="fill:#840000; fill-opacity:0.0; 
stroke:#840000; stroke-width:0.1524; stroke-opacity:1; 
stroke-linecap:round; stroke-linejoin:round;">
<text x="37.9412" y="38.8258"
textLength="2.5013" font-size="1.6933" lengthAdjust="spacingAndGlyphs"
text-anchor="end" opacity="0">Cx</text>
<g class="stroked-text"><desc>Cx</desc>
<path d="M36.5709 38.6494
L36.5105 38.7099
" />
<path d="M36.5105 38.7099
L36.3290 38.7703
" />
<path d="M36.3290 38.7703
L36.2081 38.7703
" />
<path d="M36.2081 38.7703
L36.0267 38.7099
" />
<path d="M36.0267 38.7099
L35.9057 38.5889
" />
<path d="M35.9057 38.5889
L35.8452 38.4679
" />
<path d="M35.8452 38.4679
L35.7848 38.2260
" />
<path d="M35.7848 38.2260
L35.7848 38.0446
" />
<path d="M35.7848 38.0446
L35.8452 37.8027
" />
<path d="M35.8452 37.8027
L35.9057 37.6818
" />
<path d="M35.9057 37.6818
L36.0267 37.5608
" />
<path d="M36.0267 37.5608
L36.2081 37.5003
" />
<path d="M36.2081 37.5003
L36.3290 37.5003
" />
<path d="M36.3290 37.5003
L36.5105 37.5608
" />
<path d="M36.5105 37.5608
L36.5709 37.6213
" />
<path d="M36.9943 38.7703
L37.6595 37.9237
" />
<path d="M36.9943 37.9237
L37.6595 38.7703
" />
</g><path style="fill:#840000; fill-opacity:0.0; 
stroke:#840000; stroke-width:0.1524; stroke-opacity:1; 
stroke-linecap:round; stroke-linejoin:round;fill:none"
d="M 39.3700,38.1000
38.2587,36.8296
34.6265,36.8296
34.6265,38.1000
34.6265,39.3704
38.2587,39.3704
Z" /> 
</g>
<g style="fill:#840000; fill-opacity:0.0; 
stroke:#840000; stroke-width:0.1588; stroke-opacity:1; 
stroke-linecap:round; stroke-linejoin:round;">
</g>
<g style="fill:#840000; fill-opacity:0.0; 
stroke:#840000; stroke-width:0.1524; stroke-opacity:1; 
stroke-linecap:round; stroke-linejoin:round;">
</g>
<g style="fill:#0000C2; fill-opacity:0.0; 
stroke:#0000C2; stroke-width:0.1524; stroke-opacity:1; 
stroke-linecap:round; stroke-linejoin:round;">
<text x="43.1800" y="36.5800"
textLength="12.5402" font-size="1.6933" lengthAdjust="spacingAndGlyphs"
text-anchor="end" opacity="0">JST-XH 2pin</text>
<g class="stroked-text"><desc>JST-XH 2pin</desc>
<path d="M31.4080 35.1465
L31.4080 36.0537
" />
<path d="M31.4080 36.0537
L31.3475 36.2351
" />
<path d="M31.3475 36.2351
L31.2266 36.3561
" />
<path d="M31.2266 36.3561
L31.0451 36.4165
" />
<path d="M31.0451 36.4165
L30.9242 36.4165
" />
<path d="M31.9523 36.3561
L32.1337 36.4165
" />
<path d="M32.1337 36.4165
L32.4361 36.4165
" />
<path d="M32.4361 36.4165
L32.5570 36.3561
" />
<path d="M32.5570 36.3561
L32.6175 36.2956
" />
<path d="M32.6175 36.2956
L32.6780 36.1746
" />
<path d="M32.6780 36.1746
L32.6780 36.0537
" />
<path d="M32.6780 36.0537
L32.6175 35.9327
" />
<path d="M32.6175 35.9327
L32.5570 35.8722
" />
<path d="M32.5570 35.8722
L32.4361 35.8118
" />
<path d="M32.4361 35.8118
L32.1942 35.7513
" />
<path d="M32.1942 35.7513
L32.0732 35.6908
" />
<path d="M32.0732 35.6908
L32.0127 35.6303
" />
<path d="M32.0127 35.6303
L31.9523 35.5094
" />
<path d="M31.9523 35.5094
L31.9523 35.3884
" />
<path d="M31.9523 35.3884
L32.0127 35.2675
" />
<path d="M32.0127 35.2675
L32.0732 35.2070
" />
<path d="M32.0732 35.2070
L32.1942 35.1465
" />
<path d="M32.1942 35.1465
L32.4965 35.1465
" />
<path d="M32.4965 35.1465
L32.6780 35.2070
" />
<path d="M33.0408 35.1465
L33.7665 35.1465
" />
<path d="M33.4037 36.4165
L33.4037 35.1465
" />
<path d="M34.1898 35.9327
L35.1575 35.9327
" />
<path d="M35.6413 35.1465
L36.4879 36.4165
" />
<path d="M36.4879 35.1465
L35.6413 36.4165
" />
<path d="M36.9717 36.4165
L36.9717 35.1465
" />
<path d="M36.9717 35.7513
L37.6974 35.7513
" />
<path d="M37.6974 36.4165
L37.6974 35.1465
" />
<path d="M39.2094 35.2675
L39.2698 35.2070
" />
<path d="M39.2698 35.2070
L39.3908 35.1465
" />
<path d="M39.3908 35.1465
L39.6932 35.1465
" />
<path d="M39.6932 35.1465
L39.8141 35.2070
" />
<path d="M39.8141 35.2070
L39.8746 35.2675
" />
<path d="M39.8746 35.2675
L39.9351 35.3884
" />
<path d="M39.9351 35.3884
L39.9351 35.5094
" />
<path d="M39.9351 35.5094
L39.8746 35.6908
" />
<path d="M39.8746 35.6908
L39.1489 36.4165
" />
<path d="M39.1489 36.4165
L39.9351 36.4165
" />
<path d="M40.4793 35.5699
L40.4793 36.8399
" />
<path d="M40.4793 35.6303
L40.6003 35.5699
" />
<path d="M40.6003 35.5699
L40.8422 35.5699
" />
<path d="M40.8422 35.5699
L40.9631 35.6303
" />
<path d="M40.9631 35.6303
L41.0236 35.6908
" />
<path d="M41.0236 35.6908
L41.0841 35.8118
" />
<path d="M41.0841 35.8118
L41.0841 36.1746
" />
<path d="M41.0841 36.1746
L41.0236 36.2956
" />
<path d="M41.0236 36.2956
L40.9631 36.3561
" />
<path d="M40.9631 36.3561
L40.8422 36.4165
" />
<path d="M40.8422 36.4165
L40.6003 36.4165
" />
<path d="M40.6003 36.4165
L40.4793 36.3561
" />
<path d="M41.6283 36.4165
L41.6283 35.5699
" />
<path d="M41.6283 35.1465
L41.5679 35.2070
" />
<path d="M41.5679 35.2070
L41.6283 35.2675
" />
<path d="M41.6283 35.2675
L41.6888 35.2070
" />
<path d="M41.6888 35.2070
L41.6283 35.1465
" />
<path d="M41.6283 35.1465
L41.6283 35.2675
" />
<path d="M42.2331 35.5699
L42.2331 36.4165
" />
<path d="M42.2331 35.6908
L42.2936 35.6303
" />
<path d="M42.2936 35.6303
L42.4146 35.5699
" />
<path d="M42.4146 35.5699
L42.5960 35.5699
" />
<path d="M42.5960 35.5699
L42.7169 35.6303
" />
<path d="M42.7169 35.6303
L42.7774 35.7513
" />
<path d="M42.7774 35.7513
L42.7774 36.4165
" />
</g></g>
<g style="fill:#0000C2; fill-opacity:0.0; 
stroke:#0000C2; stroke-width:0.3048; stroke-opacity:1; 
stroke-linecap:round; stroke-linejoin:round;">
</g>
<g style="fill:#000084; fill-opacity:0.0; 
stroke:#000084; stroke-width:0.3048; stroke-opacity:1; 
stroke-linecap:round; stroke-linejoin:round;">
<path d="M44.4500 38.1000
L45.7200 38.1000
" />
<path d="M39.3700 38.1000
L44.4500 38.1000
" />
</g>
<g style="fill:#000084; fill-opacity:0.0; 
stroke:#000084; stroke-width:0.1524; stroke-opacity:1; 
stroke-linecap:round; stroke-linejoin:round;">
</g>
<g style="fill:#000000; fill-opacity:0.0; 
stroke:#000000; stroke-width:0.1524; stroke-opacity:1; 
stroke-linecap:round; stroke-linejoin:round;">
<path d="M48.2600 40.6400
L48.2600 43.1800
" />
</g>
<g style="fill:#FF0000; fill-opacity:0.0; 
stroke:#FF0000; stroke-width:0.1524; stroke-opacity:1; 
stroke-linecap:round; stroke-linejoin:round;">
<path d="M46.9900 40.6400
L46.9900 43.1800
" />
<path d="M44.4500 38.1000
L46.9900 40.6400
" />
</g>
<g style="fill:#000000; fill-opacity:0.0; 
stroke:#000000; stroke-width:0.1524; stroke-opacity:1; 
stroke-linecap:round; stroke-linejoin:round;">
<path d="M45.7200 38.1000
L48.2600 40.6400
" />
</g> 
</svg>
